SplineFontDB: 3.0
FontName: Katek
FullName: Katek
FamilyName: Katek
Weight: Regular
Copyright: Copyright (c) 2018, Abdutahir. Koresh.\n\nPermission is hereby granted, free of charge, to any person obtaining a copy of this software and associated documentation files (the "Software"), to deal in the Software without restriction, including without limitation the rights to use, copy, modify, merge, publish, distribute, sublicense, and/or sell copies of the Software, and to permit persons to whom the Software is furnished to do so, subject to the following conditions:\n\nThe above copyright notice and this permission notice shall be included in all copies or substantial portions of the Software.\n\nTHE SOFTWARE IS PROVIDED "AS IS", WITHOUT WARRANTY OF ANY KIND, EXPRESS OR IMPLIED, INCLUDING BUT NOT LIMITED TO THE WARRANTIES OF MERCHANTABILITY, FITNESS FOR A PARTICULAR PURPOSE AND NONINFRINGEMENT. IN NO EVENT SHALL THE AUTHORS OR COPYRIGHT HOLDERS BE LIABLE FOR ANY CLAIM, DAMAGES OR OTHER LIABILITY, WHETHER IN AN ACTION OF CONTRACT, TORT OR OTHERWISE, ARISING FROM, OUT OF OR IN CONNECTION WITH THE SOFTWARE OR THE USE OR OTHER DEALINGS IN THE SOFTWARE.
UComments: "2018-6-3: Created with FontForge (http://fontforge.org)"
Version: 001.000
ItalicAngle: 0
UnderlinePosition: -100
UnderlineWidth: 50
Ascent: 800
Descent: 200
InvalidEm: 0
LayerCount: 2
Layer: 0 0 "Back" 1
Layer: 1 0 "Fore" 0
XUID: [1021 366 1469074146 31239]
StyleMap: 0x0000
FSType: 0
OS2Version: 0
OS2_WeightWidthSlopeOnly: 0
OS2_UseTypoMetrics: 1
CreationTime: 1528002381
ModificationTime: 1528017704
PfmFamily: 17
TTFWeight: 400
TTFWidth: 5
LineGap: 90
VLineGap: 90
OS2TypoAscent: 0
OS2TypoAOffset: 1
OS2TypoDescent: 0
OS2TypoDOffset: 1
OS2TypoLinegap: 90
OS2WinAscent: 0
OS2WinAOffset: 1
OS2WinDescent: 0
OS2WinDOffset: 1
HheadAscent: 0
HheadAOffset: 1
HheadDescent: 0
HheadDOffset: 1
OS2Vendor: 'PfEd'
MarkAttachClasses: 1
DEI: 91125
LangName: 1033
Encoding: ISO8859-1
UnicodeInterp: none
NameList: AGL For New Fonts

StartChar: a
Encoding: 97 97 0
Width: 628
VWidth: 0
Flags: W
HStem: -28.3213 26.3105<8.57324 571.632> 106.673 26.3105<7.15723 571.632> 380.59 26.3105<8.57324 430.985> 515.189 26.3105<7.15723 429.57>
VStem: 1.26367 26.3115<-28.3373 -16.3457 -16.3447 -16.3447 -2.01074 106.673 132.983 380.59 406.9 515.189 528.345 535.606> 137.122 26.3105<-22.4287 535.606> 273.295 26.3096<-19.833 535.031> 410.568 26.3105<-19.833 535.016>
LayerCount: 2
Fore
SplineSet
422.30859375 515.189453125 m 6
 14.419921875 515.189453125 l 6
 7.1572265625 515.189453125 1.263671875 521.083007812 1.263671875 528.344726562 c 4
 1.263671875 535.606445312 7.1572265625 541.5 14.419921875 541.5 c 6
 422.30859375 541.5 l 6
 429.5703125 541.5 435.463867188 535.606445312 435.463867188 528.344726562 c 4
 435.463867188 521.083007812 429.5703125 515.189453125 422.30859375 515.189453125 c 6
424.509765625 393.745117188 m 1028
14.419921875 393.745117188 m 1028
424.509765625 -16.345703125 m 1024
14.419921875 -16.345703125 m 1024
424.509765625 122.028320312 m 1024
14.419921875 122.028320312 m 1024
14.419921875 -29.5 m 0
 14.419921875 -29.5 14.4189453125 -29.5 14.4189453125 -29.5 c 0
 7.1572265625 -29.5 1.263671875 -23.6064453125 1.263671875 -16.345703125 c 0
 1.263671875 -16.345703125 1.263671875 -16.3447265625 1.263671875 -16.3447265625 c 2
 1.263671875 528.344726562 l 6
 1.263671875 535.606445312 7.1572265625 541.5 14.419921875 541.5 c 4
 21.681640625 541.5 27.5751953125 535.606445312 27.5751953125 528.344726562 c 6
 27.5751953125 -16.3447265625 l 2
 27.5751953125 -16.3447265625 27.5751953125 -16.345703125 27.5751953125 -16.345703125 c 0
 27.5751953125 -23.6064453125 21.681640625 -29.5 14.419921875 -29.5 c 0
150.27734375 -28.3212890625 m 0
 150.27734375 -28.3212890625 150.27734375 -28.3212890625 150.276367188 -28.3212890625 c 0
 143.015625 -28.3212890625 137.122070312 -22.4287109375 137.122070312 -15.1669921875 c 0
 137.122070312 -15.1669921875 137.122070312 -15.166015625 137.122070312 -15.166015625 c 2
 137.122070312 528.344726562 l 6
 137.122070312 535.606445312 143.015625 541.5 150.27734375 541.5 c 4
 157.5390625 541.5 163.432617188 535.606445312 163.432617188 528.344726562 c 6
 163.432617188 -15.166015625 l 2
 163.432617188 -15.166015625 163.432617188 -15.1669921875 163.432617188 -15.1669921875 c 0
 163.432617188 -22.4287109375 157.540039062 -28.3212890625 150.278320312 -28.3212890625 c 0
 150.278320312 -28.3212890625 150.278320312 -28.3212890625 150.27734375 -28.3212890625 c 0
423.723632812 380.58984375 m 6
 15.8349609375 380.58984375 l 6
 8.5732421875 380.58984375 2.6796875 386.483398438 2.6796875 393.745117188 c 4
 2.6796875 401.006835938 8.5732421875 406.900390625 15.8349609375 406.900390625 c 6
 423.723632812 406.900390625 l 6
 430.985351562 406.900390625 436.87890625 401.006835938 436.87890625 393.745117188 c 4
 436.87890625 386.483398438 430.985351562 380.58984375 423.723632812 380.58984375 c 6
558.48046875 106.672851562 m 2
 14.419921875 106.672851562 l 2
 7.1572265625 106.672851562 1.263671875 112.56640625 1.263671875 119.828125 c 0
 1.263671875 127.08984375 7.1572265625 132.983398438 14.419921875 132.983398438 c 2
 558.48046875 132.983398438 l 2
 565.743164062 132.983398438 571.63671875 127.08984375 571.63671875 119.828125 c 0
 571.63671875 112.56640625 565.743164062 106.672851562 558.48046875 106.672851562 c 2
558.48046875 -28.3212890625 m 2
 15.8349609375 -28.3212890625 l 2
 8.5732421875 -28.3212890625 2.6796875 -22.4287109375 2.6796875 -15.166015625 c 0
 2.6796875 -7.904296875 8.5732421875 -2.0107421875 15.8349609375 -2.0107421875 c 2
 558.48046875 -2.0107421875 l 2
 565.743164062 -2.0107421875 571.63671875 -7.904296875 571.63671875 -15.166015625 c 0
 571.63671875 -22.4287109375 565.743164062 -28.3212890625 558.48046875 -28.3212890625 c 2
423.723632812 -25.7265625 m 0
 423.723632812 -25.7265625 423.72265625 -25.7265625 423.72265625 -25.7265625 c 0
 416.461914062 -25.7265625 410.568359375 -19.8330078125 410.568359375 -12.572265625 c 0
 410.568359375 -12.572265625 410.568359375 -12.5712890625 410.568359375 -12.5712890625 c 2
 410.568359375 527.754882812 l 6
 410.568359375 535.015625 416.461914062 540.91015625 423.723632812 540.91015625 c 4
 430.985351562 540.91015625 436.87890625 535.015625 436.87890625 527.754882812 c 6
 436.87890625 -12.5712890625 l 2
 436.87890625 -12.5712890625 436.87890625 -12.572265625 436.87890625 -12.572265625 c 0
 436.87890625 -19.8330078125 430.985351562 -25.7265625 423.723632812 -25.7265625 c 0
286.450195312 -25.7265625 m 0
 286.450195312 -25.7265625 286.450195312 -25.7265625 286.44921875 -25.7265625 c 0
 279.188476562 -25.7265625 273.294921875 -19.8330078125 273.294921875 -12.572265625 c 0
 273.294921875 -12.572265625 273.294921875 -12.5712890625 273.294921875 -12.5712890625 c 2
 273.294921875 527.754882812 l 6
 273.294921875 527.758789062 273.294921875 527.765625 273.294921875 527.770507812 c 4
 273.294921875 535.03125 279.188476562 540.924804688 286.44921875 540.924804688 c 4
 293.711914062 540.924804688 299.604492188 535.03125 299.604492188 527.770507812 c 4
 299.604492188 527.765625 299.604492188 527.758789062 299.604492188 527.754882812 c 6
 299.604492188 -12.5712890625 l 2
 299.604492188 -12.5712890625 299.604492188 -12.572265625 299.604492188 -12.572265625 c 0
 299.604492188 -19.8330078125 293.711914062 -25.7265625 286.450195312 -25.7265625 c 0
EndSplineSet
Validated: 5
EndChar

StartChar: b
Encoding: 98 98 1
Width: 501
VWidth: 0
Flags: W
HStem: -28.5 26.8848<10.0742 442.131> 112.279 26.8838<10.0742 442.131> 388.717 26.8848<10.0742 442.131> 525.656 26.8848<10.0742 442.131>
VStem: 4.05176 26.8848<-22.4785 -15.0586 -15.0576 -15.0576 -1.61523 112.279 139.163 388.717 415.602 525.656 552.541 828.496> 142.271 26.8848<-22.4785 828.496> 280.49 26.8838<-22.4785 546.519> 421.269 26.8848<-22.4785 546.519>
LayerCount: 2
Fore
SplineSet
17.494140625 -28.5 m 0
 17.494140625 -28.5 17.4931640625 -28.5 17.4931640625 -28.5 c 0
 10.0732421875 -28.5 4.0517578125 -22.478515625 4.0517578125 -15.05859375 c 0
 4.0517578125 -15.05859375 4.0517578125 -15.0576171875 4.0517578125 -15.0576171875 c 2
 4.0517578125 815.057617188 l 2
 4.0517578125 822.477539062 10.07421875 828.5 17.494140625 828.5 c 0
 24.9140625 828.5 30.9365234375 822.477539062 30.9365234375 815.057617188 c 2
 30.9365234375 -15.0576171875 l 2
 30.9365234375 -15.0576171875 30.9365234375 -15.05859375 30.9365234375 -15.05859375 c 0
 30.9365234375 -22.478515625 24.9140625 -28.5 17.494140625 -28.5 c 0
155.712890625 -28.5 m 0
 155.712890625 -28.5 155.712890625 -28.5 155.711914062 -28.5 c 0
 148.29296875 -28.5 142.270507812 -22.478515625 142.270507812 -15.05859375 c 0
 142.270507812 -15.05859375 142.270507812 -15.0576171875 142.270507812 -15.0576171875 c 2
 142.270507812 815.057617188 l 2
 142.270507812 822.477539062 148.29296875 828.5 155.712890625 828.5 c 0
 163.1328125 828.5 169.155273438 822.477539062 169.155273438 815.057617188 c 2
 169.155273438 -15.0576171875 l 2
 169.155273438 -15.0576171875 169.155273438 -15.05859375 169.155273438 -15.05859375 c 0
 169.155273438 -22.478515625 163.1328125 -28.5 155.713867188 -28.5 c 0
 155.713867188 -28.5 155.712890625 -28.5 155.712890625 -28.5 c 0
293.931640625 -28.5 m 0
 286.51171875 -28.5 280.490234375 -22.478515625 280.490234375 -15.05859375 c 0
 280.490234375 -15.05859375 280.490234375 -15.0576171875 280.490234375 -15.0576171875 c 2
 280.490234375 539.098632812 l 2
 280.490234375 546.518554688 286.51171875 552.541015625 293.931640625 552.541015625 c 0
 301.3515625 552.541015625 307.374023438 546.518554688 307.374023438 539.098632812 c 2
 307.374023438 -15.0576171875 l 2
 307.374023438 -15.0576171875 307.374023438 -15.05859375 307.374023438 -15.05859375 c 0
 307.374023438 -22.478515625 301.352539062 -28.5 293.932617188 -28.5 c 0
 293.932617188 -28.5 293.932617188 -28.5 293.931640625 -28.5 c 0
434.7109375 -28.5 m 0
 427.291015625 -28.5 421.268554688 -22.478515625 421.268554688 -15.05859375 c 0
 421.268554688 -15.05859375 421.268554688 -15.0576171875 421.268554688 -15.0576171875 c 2
 421.268554688 539.098632812 l 2
 421.268554688 546.518554688 427.291015625 552.541015625 434.7109375 552.541015625 c 0
 442.130859375 552.541015625 448.153320312 546.518554688 448.153320312 539.098632812 c 2
 448.153320312 -15.0576171875 l 2
 448.153320312 -15.0576171875 448.153320312 -15.05859375 448.153320312 -15.05859375 c 0
 448.153320312 -22.478515625 442.131835938 -28.5 434.711914062 -28.5 c 0
 434.711914062 -28.5 434.7109375 -28.5 434.7109375 -28.5 c 0
434.7109375 525.65625 m 2
 17.494140625 525.65625 l 2
 10.07421875 525.65625 4.0517578125 531.678710938 4.0517578125 539.098632812 c 0
 4.0517578125 546.518554688 10.07421875 552.541015625 17.494140625 552.541015625 c 2
 434.7109375 552.541015625 l 2
 442.130859375 552.541015625 448.153320312 546.518554688 448.153320312 539.098632812 c 0
 448.153320312 531.678710938 442.130859375 525.65625 434.7109375 525.65625 c 2
434.7109375 388.716796875 m 2
 17.494140625 388.716796875 l 2
 10.07421875 388.716796875 4.0517578125 394.739257812 4.0517578125 402.159179688 c 0
 4.0517578125 409.579101562 10.07421875 415.6015625 17.494140625 415.6015625 c 2
 434.7109375 415.6015625 l 2
 442.130859375 415.6015625 448.153320312 409.579101562 448.153320312 402.159179688 c 0
 448.153320312 394.739257812 442.130859375 388.716796875 434.7109375 388.716796875 c 2
434.7109375 112.279296875 m 2
 17.494140625 112.279296875 l 2
 10.07421875 112.279296875 4.0517578125 118.301757812 4.0517578125 125.721679688 c 0
 4.0517578125 133.141601562 10.07421875 139.163085938 17.494140625 139.163085938 c 2
 434.7109375 139.163085938 l 2
 442.130859375 139.163085938 448.153320312 133.141601562 448.153320312 125.721679688 c 0
 448.153320312 118.301757812 442.130859375 112.279296875 434.7109375 112.279296875 c 2
434.7109375 -28.5 m 2
 17.494140625 -28.5 l 2
 10.07421875 -28.5 4.0517578125 -22.4775390625 4.0517578125 -15.0576171875 c 0
 4.0517578125 -7.6376953125 10.07421875 -1.615234375 17.494140625 -1.615234375 c 2
 434.7109375 -1.615234375 l 2
 442.130859375 -1.615234375 448.153320312 -7.6376953125 448.153320312 -15.0576171875 c 0
 448.153320312 -22.4775390625 442.130859375 -28.5 434.7109375 -28.5 c 2
EndSplineSet
Validated: 5
EndChar

StartChar: c
Encoding: 99 99 2
Width: 508
VWidth: 0
Flags: W
HStem: -24.3213 26.3613<9.96582 438.268> 110.659 26.3604<8.55078 436.854> 384.552 26.3604<9.96582 438.268> 519.14 26.3604<8.55078 436.854>
VStem: 2.64551 26.3613<-24.3352 -12.3203 -12.3193 -12.3193 2.04004 110.659 137.02 384.552 410.912 519.14 532.319 539.596> 138.491 26.3613<-18.417 539.596>
LayerCount: 2
Fore
SplineSet
423.677734375 519.139648438 m 2
 15.826171875 519.139648438 l 2
 8.55078125 519.139648438 2.6455078125 525.043945312 2.6455078125 532.319335938 c 0
 2.6455078125 539.595703125 8.55078125 545.5 15.826171875 545.5 c 2
 423.677734375 545.5 l 2
 430.953125 545.5 436.858398438 539.595703125 436.858398438 532.319335938 c 0
 436.858398438 525.043945312 430.953125 519.139648438 423.677734375 519.139648438 c 2
425.87890625 397.732421875 m 1024
15.826171875 397.732421875 m 1024
425.87890625 -12.3203125 m 1024
15.826171875 -12.3203125 m 1024
425.87890625 126.041015625 m 1024
15.826171875 126.041015625 m 1024
15.826171875 -25.5 m 0
 8.55078125 -25.5 2.6455078125 -19.595703125 2.6455078125 -12.3203125 c 0
 2.6455078125 -12.3203125 2.6455078125 -12.3193359375 2.6455078125 -12.3193359375 c 2
 2.6455078125 532.319335938 l 2
 2.6455078125 539.595703125 8.55078125 545.5 15.826171875 545.5 c 0
 23.1025390625 545.5 29.0068359375 539.595703125 29.0068359375 532.319335938 c 2
 29.0068359375 -12.3193359375 l 2
 29.0068359375 -12.3193359375 29.0068359375 -12.3203125 29.0068359375 -12.3203125 c 0
 29.0068359375 -19.595703125 23.1025390625 -25.5 15.8271484375 -25.5 c 0
 15.8271484375 -25.5 15.826171875 -25.5 15.826171875 -25.5 c 0
151.671875 -24.3212890625 m 0
 151.670898438 -24.3212890625 151.670898438 -24.3212890625 151.670898438 -24.3212890625 c 0
 144.396484375 -24.3212890625 138.491210938 -18.4169921875 138.491210938 -11.1416015625 c 0
 138.491210938 -11.1416015625 138.491210938 -11.140625 138.491210938 -11.140625 c 2
 138.491210938 532.319335938 l 2
 138.491210938 539.595703125 144.396484375 545.5 151.671875 545.5 c 0
 158.947265625 545.5 164.852539062 539.595703125 164.852539062 532.319335938 c 2
 164.852539062 -11.140625 l 2
 164.852539062 -11.140625 164.852539062 -11.1416015625 164.852539062 -11.1416015625 c 0
 164.852539062 -18.4169921875 158.947265625 -24.3212890625 151.672851562 -24.3212890625 c 0
 151.671875 -24.3212890625 151.671875 -24.3212890625 151.671875 -24.3212890625 c 0
425.091796875 384.551757812 m 2
 17.2412109375 384.551757812 l 2
 9.9658203125 384.551757812 4.060546875 390.456054688 4.060546875 397.732421875 c 0
 4.060546875 405.0078125 9.9658203125 410.912109375 17.2412109375 410.912109375 c 2
 425.091796875 410.912109375 l 2
 432.3671875 410.912109375 438.272460938 405.0078125 438.272460938 397.732421875 c 0
 438.272460938 390.456054688 432.3671875 384.551757812 425.091796875 384.551757812 c 2
423.677734375 110.659179688 m 2
 15.826171875 110.659179688 l 2
 8.55078125 110.659179688 2.6455078125 116.563476562 2.6455078125 123.83984375 c 0
 2.6455078125 131.115234375 8.55078125 137.01953125 15.826171875 137.01953125 c 2
 423.677734375 137.01953125 l 2
 430.953125 137.01953125 436.858398438 131.115234375 436.858398438 123.83984375 c 0
 436.858398438 116.563476562 430.953125 110.659179688 423.677734375 110.659179688 c 2
425.091796875 -24.3212890625 m 2
 17.2412109375 -24.3212890625 l 2
 9.9658203125 -24.3212890625 4.060546875 -18.4169921875 4.060546875 -11.140625 c 0
 4.060546875 -3.865234375 9.9658203125 2.0400390625 17.2412109375 2.0400390625 c 2
 425.091796875 2.0400390625 l 2
 432.3671875 2.0400390625 438.272460938 -3.865234375 438.272460938 -11.140625 c 0
 438.272460938 -18.4169921875 432.3671875 -24.3212890625 425.091796875 -24.3212890625 c 2
EndSplineSet
Validated: 5
EndChar

StartChar: d
Encoding: 100 100 3
Width: 503
VWidth: 85
Flags: W
HStem: -29.2021 26.9883<6.0459 437.506> 111.355 26.9902<6.0459 437.506> 387.361 26.9883<6.03027 437.521> 524.085 26.9893<6.0459 437.506> 806.6 20G<286.414 293.863 426.014 433.463>
VStem: 0 26.9893<-23.1572 -15.708 -2.21387 111.355 138.346 387.361 414.35 524.085 537.58 545.028> 138.322 26.9893<-23.1572 545.028> 276.644 26.9893<-21.958 826.595> 416.244 26.9893<-29.2077 826.595>
LayerCount: 2
Fore
SplineSet
290.138671875 -28.0029296875 m 4
 290.138671875 -28.0029296875 290.137695312 -28.0029296875 290.137695312 -28.0029296875 c 4
 282.689453125 -28.0029296875 276.643554688 -21.9580078125 276.643554688 -14.509765625 c 4
 276.643554688 -14.509765625 276.643554688 -14.5087890625 276.643554688 -14.5087890625 c 6
 276.643554688 813.10546875 l 6
 276.643554688 820.553710938 282.689453125 826.599609375 290.138671875 826.599609375 c 4
 297.586914062 826.599609375 303.6328125 820.553710938 303.6328125 813.10546875 c 6
 303.6328125 -14.5087890625 l 6
 303.6328125 -14.5087890625 303.6328125 -14.509765625 303.6328125 -14.509765625 c 4
 303.6328125 -21.9580078125 297.587890625 -28.0029296875 290.138671875 -28.0029296875 c 4
429.73828125 -30.400390625 m 4
 422.2890625 -30.400390625 416.244140625 -24.3544921875 416.244140625 -16.9052734375 c 4
 416.244140625 813.10546875 l 6
 416.244140625 820.553710938 422.290039062 826.599609375 429.73828125 826.599609375 c 4
 437.188476562 826.599609375 443.233398438 820.553710938 443.233398438 813.10546875 c 6
 443.233398438 -16.9052734375 l 6
 443.233398438 -24.3544921875 437.188476562 -30.400390625 429.739257812 -30.400390625 c 4
 429.739257812 -30.400390625 429.73828125 -30.400390625 429.73828125 -30.400390625 c 4
13.494140625 -29.2021484375 m 4
 6.044921875 -29.2021484375 0 -23.1572265625 0 -15.708984375 c 4
 0 -15.7080078125 0 -15.7080078125 0 -15.7080078125 c 6
 0 537.580078125 l 6
 0 545.028320312 6.0458984375 551.07421875 13.494140625 551.07421875 c 4
 20.943359375 551.07421875 26.9892578125 545.028320312 26.9892578125 537.580078125 c 6
 26.9892578125 -15.7080078125 l 6
 26.9892578125 -15.7080078125 26.9892578125 -15.7080078125 26.9892578125 -15.708984375 c 4
 26.9892578125 -23.1572265625 20.943359375 -29.2021484375 13.4951171875 -29.2021484375 c 4
 13.4951171875 -29.2021484375 13.494140625 -29.2021484375 13.494140625 -29.2021484375 c 4
151.81640625 -29.2021484375 m 4
 144.3671875 -29.2021484375 138.322265625 -23.1572265625 138.322265625 -15.708984375 c 4
 138.322265625 -15.7080078125 138.322265625 -15.7080078125 138.322265625 -15.7080078125 c 6
 138.322265625 537.580078125 l 6
 138.322265625 545.028320312 144.3671875 551.07421875 151.81640625 551.07421875 c 4
 159.265625 551.07421875 165.311523438 545.028320312 165.311523438 537.580078125 c 6
 165.311523438 -15.7080078125 l 6
 165.311523438 -15.7080078125 165.311523438 -15.7080078125 165.311523438 -15.708984375 c 4
 165.311523438 -23.1572265625 159.265625 -29.2021484375 151.817382812 -29.2021484375 c 4
 151.817382812 -29.2021484375 151.817382812 -29.2021484375 151.81640625 -29.2021484375 c 4
430.056640625 524.084960938 m 6
 13.494140625 524.084960938 l 6
 6.0458984375 524.084960938 0 530.130859375 0 537.580078125 c 4
 0 545.028320312 6.0458984375 551.07421875 13.494140625 551.07421875 c 6
 430.056640625 551.07421875 l 6
 437.505859375 551.07421875 443.551757812 545.028320312 443.551757812 537.580078125 c 4
 443.551757812 530.130859375 437.505859375 524.084960938 430.056640625 524.084960938 c 6
430.056640625 387.361328125 m 6
 13.494140625 387.361328125 l 6
 13.490234375 387.361328125 13.482421875 387.361328125 13.478515625 387.361328125 c 4
 6.0302734375 387.361328125 -0.015625 393.40625 -0.015625 400.856445312 c 4
 -0.015625 408.3046875 6.0302734375 414.349609375 13.478515625 414.349609375 c 4
 13.482421875 414.349609375 13.490234375 414.349609375 13.494140625 414.349609375 c 6
 430.056640625 414.349609375 l 6
 430.061523438 414.349609375 430.068359375 414.349609375 430.073242188 414.349609375 c 4
 437.521484375 414.349609375 443.567382812 408.3046875 443.567382812 400.856445312 c 4
 443.567382812 393.40625 437.521484375 387.361328125 430.073242188 387.361328125 c 4
 430.068359375 387.361328125 430.061523438 387.361328125 430.056640625 387.361328125 c 6
430.056640625 111.35546875 m 6
 13.494140625 111.35546875 l 6
 6.0458984375 111.35546875 0 117.401367188 0 124.850585938 c 4
 0 132.299804688 6.0458984375 138.345703125 13.494140625 138.345703125 c 6
 430.056640625 138.345703125 l 6
 437.505859375 138.345703125 443.551757812 132.299804688 443.551757812 124.850585938 c 4
 443.551757812 117.401367188 437.505859375 111.35546875 430.056640625 111.35546875 c 6
430.056640625 -29.2021484375 m 6
 13.494140625 -29.2021484375 l 6
 6.0458984375 -29.2021484375 0 -23.1572265625 0 -15.7080078125 c 4
 0 -8.2587890625 6.0458984375 -2.2138671875 13.494140625 -2.2138671875 c 6
 430.056640625 -2.2138671875 l 6
 437.505859375 -2.2138671875 443.551757812 -8.2587890625 443.551757812 -15.7080078125 c 4
 443.551757812 -23.1572265625 437.505859375 -29.2021484375 430.056640625 -29.2021484375 c 6
EndSplineSet
Validated: 5
EndChar

StartChar: e
Encoding: 101 101 4
Width: 500
VWidth: 0
Flags: W
HStem: -24.2002 26.4746<5.93066 436.438> 114.131 26.4746<141.748 427.996> 249.948 26.4746<141.748 427.996> 385.766 26.4746<5.93066 427.996> 520.325 26.4746<5.93066 427.996>
VStem: 0 26.4746<-18.2695 -10.9629 2.27441 385.766 412.24 520.325 533.562 540.87> 135.817 26.4746<-18.2695 114.131 140.605 249.948 276.423 540.87> 271.635 26.4746<120.061 540.87> 407.452 26.4746<120.061 540.87>
LayerCount: 2
Fore
SplineSet
420.689453125 520.325195312 m 6
 13.2373046875 520.325195312 l 6
 5.9306640625 520.325195312 0 526.255859375 0 533.5625 c 4
 0 540.870117188 5.9306640625 546.799804688 13.2373046875 546.799804688 c 6
 420.689453125 546.799804688 l 6
 427.99609375 546.799804688 433.926757812 540.870117188 433.926757812 533.5625 c 4
 433.926757812 526.255859375 427.99609375 520.325195312 420.689453125 520.325195312 c 6
420.689453125 385.765625 m 6
 13.2373046875 385.765625 l 6
 5.9306640625 385.765625 0 391.696289062 0 399.002929688 c 4
 0 406.309570312 5.9306640625 412.240234375 13.2373046875 412.240234375 c 6
 420.689453125 412.240234375 l 6
 427.99609375 412.240234375 433.926757812 406.309570312 433.926757812 399.002929688 c 4
 433.926757812 391.696289062 427.99609375 385.765625 420.689453125 385.765625 c 6
423.205078125 -24.2001953125 m 6
 13.2373046875 -24.2001953125 l 6
 5.9306640625 -24.2001953125 0 -18.26953125 0 -10.962890625 c 4
 0 -3.6552734375 5.9306640625 2.2744140625 13.2373046875 2.2744140625 c 6
 423.205078125 2.2744140625 l 6
 430.51171875 2.2744140625 436.442382812 -3.6552734375 436.442382812 -10.962890625 c 4
 436.442382812 -18.26953125 430.51171875 -24.2001953125 423.205078125 -24.2001953125 c 6
420.689453125 114.130859375 m 6
 149.0546875 114.130859375 l 6
 141.748046875 114.130859375 135.817382812 120.061523438 135.817382812 127.368164062 c 4
 135.817382812 134.674804688 141.748046875 140.60546875 149.0546875 140.60546875 c 6
 420.689453125 140.60546875 l 6
 427.99609375 140.60546875 433.926757812 134.674804688 433.926757812 127.368164062 c 4
 433.926757812 120.061523438 427.99609375 114.130859375 420.689453125 114.130859375 c 6
13.2373046875 -24.2001953125 m 4
 13.2373046875 -24.2001953125 13.236328125 -24.2001953125 13.236328125 -24.2001953125 c 4
 5.9306640625 -24.2001953125 0 -18.26953125 0 -10.962890625 c 4
 0 533.5625 l 6
 0 540.870117188 5.9306640625 546.799804688 13.2373046875 546.799804688 c 4
 20.5439453125 546.799804688 26.474609375 540.870117188 26.474609375 533.5625 c 6
 26.474609375 -10.962890625 l 6
 26.474609375 -18.26953125 20.5439453125 -24.2001953125 13.23828125 -24.2001953125 c 4
 13.2373046875 -24.2001953125 13.2373046875 -24.2001953125 13.2373046875 -24.2001953125 c 4
149.0546875 -24.2001953125 m 4
 149.0546875 -24.2001953125 149.0546875 -24.2001953125 149.053710938 -24.2001953125 c 4
 141.747070312 -24.2001953125 135.817382812 -18.26953125 135.817382812 -10.962890625 c 4
 135.817382812 533.5625 l 6
 135.817382812 540.870117188 141.748046875 546.799804688 149.0546875 546.799804688 c 4
 156.361328125 546.799804688 162.291992188 540.870117188 162.291992188 533.5625 c 6
 162.291992188 -10.962890625 l 6
 162.291992188 -18.26953125 156.362304688 -24.2001953125 149.0546875 -24.2001953125 c 4
420.689453125 114.130859375 m 4
 413.381835938 114.130859375 407.452148438 120.060546875 407.452148438 127.3671875 c 4
 407.452148438 127.3671875 407.452148438 127.3671875 407.452148438 127.368164062 c 6
 407.452148438 533.5625 l 6
 407.452148438 540.870117188 413.3828125 546.799804688 420.689453125 546.799804688 c 4
 427.99609375 546.799804688 433.926757812 540.870117188 433.926757812 533.5625 c 6
 433.926757812 127.368164062 l 6
 433.926757812 127.3671875 433.926757812 127.3671875 433.926757812 127.3671875 c 4
 433.926757812 120.060546875 427.997070312 114.130859375 420.690429688 114.130859375 c 4
 420.689453125 114.130859375 420.689453125 114.130859375 420.689453125 114.130859375 c 4
284.872070312 114.130859375 m 4
 284.872070312 114.130859375 284.87109375 114.130859375 284.87109375 114.130859375 c 4
 277.565429688 114.130859375 271.634765625 120.060546875 271.634765625 127.3671875 c 4
 271.634765625 127.3671875 271.634765625 127.3671875 271.634765625 127.368164062 c 6
 271.634765625 533.5625 l 6
 271.634765625 540.870117188 277.565429688 546.799804688 284.872070312 546.799804688 c 4
 292.178710938 546.799804688 298.109375 540.870117188 298.109375 533.5625 c 6
 298.109375 127.368164062 l 6
 298.109375 127.3671875 298.109375 127.3671875 298.109375 127.3671875 c 4
 298.109375 120.060546875 292.178710938 114.130859375 284.873046875 114.130859375 c 4
 284.873046875 114.130859375 284.872070312 114.130859375 284.872070312 114.130859375 c 4
420.689453125 249.948242188 m 6
 149.0546875 249.948242188 l 6
 141.748046875 249.948242188 135.817382812 255.87890625 135.817382812 263.185546875 c 4
 135.817382812 270.4921875 141.748046875 276.422851562 149.0546875 276.422851562 c 6
 420.689453125 276.422851562 l 6
 427.99609375 276.422851562 433.926757812 270.4921875 433.926757812 263.185546875 c 4
 433.926757812 255.87890625 427.99609375 249.948242188 420.689453125 249.948242188 c 6
EndSplineSet
Validated: 5
EndChar

StartChar: f
Encoding: 102 102 5
Width: 500
VWidth: 0
Flags: W
HStem: 383.338 26.6025<0.00434704 436.368> 520.563 26.6025<0.00434704 436.368> 656.598 26.6025<141.914 436.368>
VStem: 135.955 26.6025<-25.3788 656.598 669.898 677.241> 274.768 26.6035<-27.7613 677.241>
LayerCount: 2
Fore
SplineSet
149.256835938 -28.4169921875 m 0
 149.255859375 -28.4169921875 149.255859375 -28.4169921875 149.255859375 -28.4169921875 c 0
 141.9140625 -28.4169921875 135.955078125 -22.458984375 135.955078125 -15.1162109375 c 0
 135.955078125 -15.1162109375 135.955078125 -15.115234375 135.955078125 -15.115234375 c 2
 135.955078125 669.8984375 l 2
 135.955078125 677.241210938 141.9140625 683.200195312 149.256835938 683.200195312 c 0
 156.598632812 683.200195312 162.557617188 677.241210938 162.557617188 669.8984375 c 2
 162.557617188 -15.115234375 l 2
 162.557617188 -15.115234375 162.557617188 -15.1162109375 162.557617188 -15.1162109375 c 0
 162.557617188 -22.458984375 156.598632812 -28.4169921875 149.256835938 -28.4169921875 c 0
288.069335938 -30.7998046875 m 0
 288.069335938 -30.7998046875 288.069335938 -30.7998046875 288.068359375 -30.7998046875 c 0
 280.7265625 -30.7998046875 274.767578125 -24.8408203125 274.767578125 -17.4990234375 c 0
 274.767578125 -17.4990234375 274.767578125 -17.4990234375 274.767578125 -17.498046875 c 2
 274.767578125 669.8984375 l 2
 274.767578125 677.241210938 280.7265625 683.200195312 288.069335938 683.200195312 c 0
 295.411132812 683.200195312 301.37109375 677.241210938 301.37109375 669.8984375 c 2
 301.37109375 -17.498046875 l 2
 301.37109375 -17.4990234375 301.37109375 -17.4990234375 301.37109375 -17.4990234375 c 0
 301.37109375 -24.8408203125 295.412109375 -30.7998046875 288.069335938 -30.7998046875 c 0
423.071289062 520.563476562 m 2
 13.3017578125 520.563476562 l 2
 5.958984375 520.563476562 0 526.522460938 0 533.864257812 c 0
 0 541.20703125 5.958984375 547.166015625 13.3017578125 547.166015625 c 2
 423.071289062 547.166015625 l 2
 430.4140625 547.166015625 436.372070312 541.20703125 436.372070312 533.864257812 c 0
 436.372070312 526.522460938 430.4140625 520.563476562 423.071289062 520.563476562 c 2
423.071289062 383.337890625 m 2
 13.3017578125 383.337890625 l 2
 5.958984375 383.337890625 0 389.296875 0 396.639648438 c 0
 0 403.982421875 5.958984375 409.940429688 13.3017578125 409.940429688 c 2
 423.071289062 409.940429688 l 2
 430.4140625 409.940429688 436.372070312 403.982421875 436.372070312 396.639648438 c 0
 436.372070312 389.296875 430.4140625 383.337890625 423.071289062 383.337890625 c 2
423.071289062 656.59765625 m 2
 149.256835938 656.59765625 l 2
 141.9140625 656.59765625 135.955078125 662.555664062 135.955078125 669.8984375 c 0
 135.955078125 677.241210938 141.9140625 683.200195312 149.256835938 683.200195312 c 2
 423.071289062 683.200195312 l 2
 430.4140625 683.200195312 436.372070312 677.241210938 436.372070312 669.8984375 c 0
 436.372070312 662.555664062 430.4140625 656.59765625 423.071289062 656.59765625 c 2
EndSplineSet
Validated: 5
EndChar

StartChar: g
Encoding: 103 103 6
Width: 501
VWidth: 0
Flags: W
HStem: -166.885 26.0703<0.842763 434.318> -31.957 26.9854<6.04492 435.911> 108.063 26.9854<6.04492 435.911> 383.013 26.9854<6.04492 435.911> 519.215 26.9854<6.04492 435.911>
VStem: 0 26.9854<-25.9131 -18.4648 -4.97168 108.063 135.049 383.013 409.998 519.215 532.707 540.155> 137.475 26.9854<-25.9131 540.155> 274.948 26.9863<-160.841 540.155> 414.97 26.9854<-160.841 540.155>
LayerCount: 2
Fore
SplineSet
428.462890625 519.21484375 m 2
 13.4931640625 519.21484375 l 2
 6.044921875 519.21484375 0 525.258789062 0 532.70703125 c 0
 0 540.155273438 6.044921875 546.200195312 13.4931640625 546.200195312 c 2
 428.462890625 546.200195312 l 2
 435.911132812 546.200195312 441.955078125 540.155273438 441.955078125 532.70703125 c 0
 441.955078125 525.258789062 435.911132812 519.21484375 428.462890625 519.21484375 c 2
428.462890625 383.012695312 m 2
 13.4931640625 383.012695312 l 2
 6.044921875 383.012695312 0 389.057617188 0 396.505859375 c 0
 0 403.954101562 6.044921875 409.998046875 13.4931640625 409.998046875 c 2
 428.462890625 409.998046875 l 2
 435.911132812 409.998046875 441.955078125 403.954101562 441.955078125 396.505859375 c 0
 441.955078125 389.057617188 435.911132812 383.012695312 428.462890625 383.012695312 c 2
428.462890625 -31.95703125 m 2
 13.4931640625 -31.95703125 l 2
 6.044921875 -31.95703125 0 -25.9130859375 0 -18.46484375 c 0
 0 -11.0166015625 6.044921875 -4.9716796875 13.4931640625 -4.9716796875 c 2
 428.462890625 -4.9716796875 l 2
 435.911132812 -4.9716796875 441.955078125 -11.0166015625 441.955078125 -18.46484375 c 0
 441.955078125 -25.9130859375 435.911132812 -31.95703125 428.462890625 -31.95703125 c 2
428.462890625 108.063476562 m 2
 13.4931640625 108.063476562 l 2
 6.044921875 108.063476562 0 114.108398438 0 121.556640625 c 0
 0 129.00390625 6.044921875 135.048828125 13.4931640625 135.048828125 c 2
 428.462890625 135.048828125 l 2
 435.911132812 135.048828125 441.955078125 129.00390625 441.955078125 121.556640625 c 0
 441.955078125 114.108398438 435.911132812 108.063476562 428.462890625 108.063476562 c 2
13.4931640625 -31.95703125 m 0
 13.4931640625 -31.95703125 13.4921875 -31.95703125 13.4921875 -31.95703125 c 0
 6.044921875 -31.95703125 0 -25.9130859375 0 -18.46484375 c 0
 0 532.70703125 l 2
 0 540.155273438 6.044921875 546.200195312 13.4931640625 546.200195312 c 0
 20.94140625 546.200195312 26.9853515625 540.155273438 26.9853515625 532.70703125 c 2
 26.9853515625 -18.46484375 l 2
 26.9853515625 -25.9130859375 20.94140625 -31.95703125 13.4931640625 -31.95703125 c 0
150.966796875 -31.95703125 m 0
 143.518554688 -31.95703125 137.474609375 -25.9130859375 137.474609375 -18.46484375 c 0
 137.474609375 532.70703125 l 2
 137.474609375 540.155273438 143.518554688 546.200195312 150.966796875 546.200195312 c 0
 158.415039062 546.200195312 164.459960938 540.155273438 164.459960938 532.70703125 c 2
 164.459960938 -18.46484375 l 2
 164.459960938 -25.9130859375 158.415039062 -31.95703125 150.967773438 -31.95703125 c 0
 150.967773438 -31.95703125 150.966796875 -31.95703125 150.966796875 -31.95703125 c 0
288.44140625 -166.884765625 m 0
 280.993164062 -166.884765625 274.948242188 -160.840820312 274.948242188 -153.393554688 c 0
 274.948242188 -153.393554688 274.948242188 -153.392578125 274.948242188 -153.392578125 c 2
 274.948242188 532.70703125 l 2
 274.948242188 540.155273438 280.994140625 546.200195312 288.44140625 546.200195312 c 0
 295.889648438 546.200195312 301.934570312 540.155273438 301.934570312 532.70703125 c 2
 301.934570312 -153.392578125 l 2
 301.934570312 -153.392578125 301.934570312 -153.393554688 301.934570312 -153.393554688 c 0
 301.934570312 -160.840820312 295.889648438 -166.884765625 288.442382812 -166.884765625 c 0
 288.442382812 -166.884765625 288.442382812 -166.884765625 288.44140625 -166.884765625 c 0
428.462890625 -166.884765625 m 0
 428.462890625 -166.884765625 428.462890625 -166.884765625 428.461914062 -166.884765625 c 0
 421.014648438 -166.884765625 414.969726562 -160.840820312 414.969726562 -153.393554688 c 0
 414.969726562 -153.393554688 414.969726562 -153.392578125 414.969726562 -153.392578125 c 2
 414.969726562 532.70703125 l 2
 414.969726562 540.155273438 421.014648438 546.200195312 428.462890625 546.200195312 c 0
 435.911132812 546.200195312 441.955078125 540.155273438 441.955078125 532.70703125 c 2
 441.955078125 -153.392578125 l 2
 441.955078125 -153.392578125 441.955078125 -153.393554688 441.955078125 -153.393554688 c 0
 441.955078125 -160.840820312 435.911132812 -166.884765625 428.463867188 -166.884765625 c 0
 428.463867188 -166.884765625 428.462890625 -166.884765625 428.462890625 -166.884765625 c 0
426.870117188 -167.799804688 m 2
 14.318359375 -167.799804688 l 2
 6.8701171875 -167.799804688 0.8251953125 -161.755859375 0.8251953125 -154.307617188 c 0
 0.8251953125 -146.859375 6.8701171875 -140.814453125 14.318359375 -140.814453125 c 2
 426.870117188 -140.814453125 l 2
 434.318359375 -140.814453125 440.36328125 -146.859375 440.36328125 -154.307617188 c 0
 440.36328125 -161.755859375 434.318359375 -167.799804688 426.870117188 -167.799804688 c 2
EndSplineSet
Validated: 5
EndChar

StartChar: h
Encoding: 104 104 7
Width: 500
VWidth: 0
Flags: W
HStem: 384.568 26.8818<6.02148 436.604> 521.429 26.8818<6.02832 436.604>
VStem: 0 26.8809<-31.1167 384.568 411.45 521.429 548.311 824.595> 138.186 26.8809<-29.33 824.595> 275.422 26.8818<-31.1309 542.289> 415.744 26.8809<-28.0604 542.289>
LayerCount: 2
Fore
SplineSet
13.4404296875 -31.12109375 m 0
 6.0205078125 -31.12109375 0 -25.1005859375 0 -17.681640625 c 0
 0 -17.681640625 0 -17.681640625 0 -17.6806640625 c 2
 0.009765625 811.159179688 l 2
 0.009765625 818.578125 6.03125 824.599609375 13.451171875 824.599609375 c 0
 20.8701171875 824.599609375 26.8916015625 818.578125 26.8916015625 811.159179688 c 2
 26.880859375 -17.6806640625 l 2
 26.880859375 -25.099609375 20.8603515625 -31.12109375 13.4404296875 -31.12109375 c 0
151.625976562 -32.400390625 m 0
 151.625 -32.400390625 151.625 -32.400390625 151.625 -32.400390625 c 0
 144.206054688 -32.400390625 138.185546875 -26.37890625 138.185546875 -18.9599609375 c 0
 138.185546875 -18.9599609375 138.185546875 -18.9599609375 138.185546875 -18.958984375 c 2
 138.185546875 811.159179688 l 2
 138.185546875 818.578125 144.20703125 824.599609375 151.625976562 824.599609375 c 0
 159.045898438 824.599609375 165.06640625 818.578125 165.06640625 811.159179688 c 2
 165.06640625 -18.958984375 l 2
 165.06640625 -18.9599609375 165.06640625 -18.9599609375 165.06640625 -18.9599609375 c 0
 165.06640625 -26.37890625 159.045898438 -32.400390625 151.625976562 -32.400390625 c 0
288.862304688 -31.130859375 m 0
 288.862304688 -31.130859375 288.861328125 -31.130859375 288.861328125 -31.130859375 c 0
 281.443359375 -31.130859375 275.421875 -25.109375 275.421875 -17.6904296875 c 0
 275.421875 -17.6904296875 275.421875 -17.6904296875 275.421875 -17.689453125 c 2
 275.421875 534.869140625 l 2
 275.421875 542.2890625 281.443359375 548.310546875 288.862304688 548.310546875 c 0
 296.282226562 548.310546875 302.303710938 542.2890625 302.303710938 534.869140625 c 2
 302.303710938 -17.689453125 l 2
 302.303710938 -17.6904296875 302.303710938 -17.6904296875 302.303710938 -17.6904296875 c 0
 302.303710938 -25.109375 296.282226562 -31.130859375 288.862304688 -31.130859375 c 0
429.184570312 -31.130859375 m 0
 429.184570312 -31.130859375 429.18359375 -31.130859375 429.18359375 -31.130859375 c 0
 421.765625 -31.130859375 415.744140625 -25.109375 415.744140625 -17.6904296875 c 0
 415.744140625 -17.6904296875 415.744140625 -17.6904296875 415.744140625 -17.689453125 c 2
 415.744140625 534.869140625 l 2
 415.744140625 542.2890625 421.765625 548.310546875 429.184570312 548.310546875 c 0
 436.603515625 548.310546875 442.625 542.2890625 442.625 534.869140625 c 2
 442.625 -17.689453125 l 2
 442.625 -17.6904296875 442.625 -17.6904296875 442.625 -17.6904296875 c 0
 442.625 -25.109375 436.603515625 -31.130859375 429.184570312 -31.130859375 c 0
429.184570312 521.428710938 m 2
 13.447265625 521.428710938 l 2
 6.0283203125 521.428710938 0.0068359375 527.450195312 0.0068359375 534.869140625 c 0
 0.0068359375 542.2890625 6.0283203125 548.310546875 13.447265625 548.310546875 c 2
 429.184570312 548.310546875 l 2
 436.603515625 548.310546875 442.625 542.2890625 442.625 534.869140625 c 0
 442.625 527.450195312 436.603515625 521.428710938 429.184570312 521.428710938 c 2
429.184570312 384.568359375 m 2
 13.4404296875 384.568359375 l 2
 6.021484375 384.568359375 0 390.58984375 0 398.008789062 c 0
 0 405.428710938 6.021484375 411.450195312 13.4404296875 411.450195312 c 2
 429.184570312 411.450195312 l 2
 436.603515625 411.450195312 442.625 405.428710938 442.625 398.008789062 c 0
 442.625 390.58984375 436.603515625 384.568359375 429.184570312 384.568359375 c 2
EndSplineSet
Validated: 5
EndChar

StartChar: i
Encoding: 105 105 8
Width: 234
VWidth: 0
Flags: W
HStem: 529.261 20G<10.3286 17.6982 148.499 155.869> 660.408 26.7021<0.124481 165.21> 798.898 26.7012<0.00436342 165.21>
VStem: 0.662109 26.7012<-28.3504 549.256> 138.832 26.7021<-28.3388 549.266>
LayerCount: 2
Fore
SplineSet
151.86328125 660.408203125 m 6
 13.470703125 660.408203125 l 6
 6.1015625 660.408203125 0.1201171875 666.389648438 0.1201171875 673.759765625 c 4
 0.1201171875 681.12890625 6.1015625 687.110351562 13.470703125 687.110351562 c 6
 151.86328125 687.110351562 l 6
 159.233398438 687.110351562 165.21484375 681.12890625 165.21484375 673.759765625 c 4
 165.21484375 666.389648438 159.233398438 660.408203125 151.86328125 660.408203125 c 6
151.86328125 798.8984375 m 2
 13.3515625 798.8984375 l 2
 5.9814453125 798.8984375 0 804.879882812 0 812.249023438 c 0
 0 819.618164062 5.9814453125 825.599609375 13.3515625 825.599609375 c 2
 151.86328125 825.599609375 l 2
 159.233398438 825.599609375 165.21484375 819.618164062 165.21484375 812.249023438 c 0
 165.21484375 804.879882812 159.233398438 798.8984375 151.86328125 798.8984375 c 2
14.013671875 -31.400390625 m 0
 14.013671875 -31.400390625 14.0126953125 -31.400390625 14.0126953125 -31.400390625 c 0
 6.6435546875 -31.400390625 0.662109375 -25.4189453125 0.662109375 -18.0498046875 c 0
 0.662109375 -18.0498046875 0.662109375 -18.0498046875 0.662109375 -18.048828125 c 2
 0.662109375 535.91015625 l 6
 0.662109375 543.279296875 6.6435546875 549.260742188 14.013671875 549.260742188 c 4
 21.3828125 549.260742188 27.36328125 543.279296875 27.36328125 535.91015625 c 6
 27.36328125 -18.048828125 l 2
 27.36328125 -18.0498046875 27.36328125 -18.0498046875 27.36328125 -18.0498046875 c 0
 27.36328125 -25.4189453125 21.3828125 -31.400390625 14.013671875 -31.400390625 c 0
152.18359375 -31.388671875 m 0
 152.18359375 -31.388671875 152.182617188 -31.388671875 152.182617188 -31.388671875 c 0
 144.813476562 -31.388671875 138.83203125 -25.4072265625 138.83203125 -18.0390625 c 0
 138.83203125 -18.0390625 138.83203125 -18.0380859375 138.83203125 -18.0380859375 c 2
 138.83203125 535.919921875 l 6
 138.83203125 543.2890625 144.813476562 549.270507812 152.18359375 549.270507812 c 4
 159.553710938 549.270507812 165.534179688 543.2890625 165.534179688 535.919921875 c 6
 165.534179688 -18.0380859375 l 2
 165.534179688 -18.0380859375 165.534179688 -18.0390625 165.534179688 -18.0390625 c 0
 165.534179688 -25.4072265625 159.553710938 -31.388671875 152.18359375 -31.388671875 c 0
EndSplineSet
Validated: 5
EndChar

StartChar: j
Encoding: 106 106 9
Width: 396
VWidth: 0
Flags: HW
HStem: -165 36.1543<0.00590789 303.577> 660.766 36.1553<137.586 311.71> 798.846 36.1543<137.466 311.71>
VStem: 138.3 36.1533<-156.901 559.494> 275.521 36.1553<-156.901 559.474>
LayerCount: 2
Fore
SplineSet
153.139648438 -170 m 4
 153.139648438 -170 153.139648438 -170 153.139648438 -170 c 4
 145.66796875 -170 139.603515625 -163.936523438 139.603515625 -156.46484375 c 4
 139.603515625 -156.46484375 139.603515625 -156.463867188 139.603515625 -156.463867188 c 6
 139.603515625 538.346679688 l 6
 139.603515625 545.818359375 145.66796875 551.8828125 153.139648438 551.8828125 c 4
 160.611328125 551.8828125 166.67578125 545.818359375 166.67578125 538.346679688 c 6
 166.67578125 -156.463867188 l 6
 166.67578125 -156.463867188 166.67578125 -156.46484375 166.67578125 -156.46484375 c 4
 166.67578125 -163.936523438 160.612304688 -170 153.140625 -170 c 4
 153.140625 -170 153.139648438 -170 153.139648438 -170 c 4
291.654296875 -170 m 4
 291.654296875 -170 291.653320312 -170 291.653320312 -170 c 4
 284.181640625 -170 278.118164062 -163.936523438 278.118164062 -156.46484375 c 4
 278.118164062 -156.46484375 278.118164062 -156.463867188 278.118164062 -156.463867188 c 6
 278.118164062 538.346679688 l 6
 278.118164062 545.818359375 284.182617188 551.8828125 291.654296875 551.8828125 c 4
 299.125976562 551.8828125 305.190429688 545.818359375 305.190429688 538.346679688 c 6
 305.190429688 -156.463867188 l 6
 305.190429688 -156.463867188 305.190429688 -156.46484375 305.190429688 -156.46484375 c 4
 305.190429688 -163.936523438 299.125976562 -170 291.654296875 -170 c 4
 291.654296875 -170 291.654296875 -170 291.654296875 -170 c 4
291.6953125 663.547851562 m 6
 152.413085938 663.547851562 l 6
 144.94140625 663.547851562 138.876953125 669.612304688 138.876953125 677.083984375 c 4
 138.876953125 684.555664062 144.94140625 690.620117188 152.413085938 690.620117188 c 6
 291.6953125 690.620117188 l 6
 299.166992188 690.620117188 305.231445312 684.555664062 305.231445312 677.083984375 c 4
 305.231445312 669.612304688 299.166992188 663.547851562 291.6953125 663.547851562 c 6
291.6953125 802.927734375 m 6
 152.291992188 802.927734375 l 6
 144.8203125 802.927734375 138.755859375 808.9921875 138.755859375 816.463867188 c 4
 138.755859375 823.935546875 144.8203125 830 152.291992188 830 c 6
 291.6953125 830 l 6
 299.166992188 830 305.231445312 823.935546875 305.231445312 816.463867188 c 4
 305.231445312 808.9921875 299.166992188 802.927734375 291.6953125 802.927734375 c 6
291.654296875 -170 m 6
 13.5361328125 -170 l 6
 6.064453125 -170 0 -163.935546875 0 -156.463867188 c 4
 0 -148.9921875 6.064453125 -142.927734375 13.5361328125 -142.927734375 c 6
 291.654296875 -142.927734375 l 6
 299.125976562 -142.927734375 305.190429688 -148.9921875 305.190429688 -156.463867188 c 4
 305.190429688 -163.935546875 299.125976562 -170 291.654296875 -170 c 6
EndSplineSet
Validated: 5
EndChar

StartChar: k
Encoding: 107 107 10
Width: 499
VWidth: 0
Flags: W
HStem: 246.121 26.9688<6.04102 296.366> 385.524 26.9678<6.08594 442.708> 522.371 26.9678<275.443 442.708>
VStem: 0.0449219 26.9678<-27.2436 246.121 273.09 385.524 412.492 825.595> 138.217 26.9678<-28.5232 825.595> 275.438 26.9688<-27.2536 267.049> 415.744 26.9688<-27.2536 273.085>
LayerCount: 2
Fore
SplineSet
13.529296875 -30.12109375 m 1
 13.5283203125 -30.12109375 13.5283203125 -30.12109375 13.5283203125 -30.12109375 c 0
 6.0859375 -30.12109375 0.044921875 -24.080078125 0.044921875 -16.63671875 c 0
 0.0546875 812.115234375 l 2
 0.0556640625 819.559570312 6.095703125 825.599609375 13.5390625 825.599609375 c 1
 20.982421875 825.599609375 27.0234375 819.559570312 27.0234375 812.115234375 c 2
 27.0126953125 -16.63671875 l 2
 27.0126953125 -24.0791015625 20.97265625 -30.12109375 13.529296875 -30.12109375 c 1
151.700195312 -31.400390625 m 0
 144.256835938 -31.400390625 138.216796875 -25.359375 138.216796875 -17.916015625 c 0
 138.216796875 812.115234375 l 2
 138.216796875 819.559570312 144.256835938 825.599609375 151.700195312 825.599609375 c 0
 159.143554688 825.599609375 165.184570312 819.559570312 165.184570312 812.115234375 c 2
 165.184570312 -17.916015625 l 2
 165.184570312 -25.359375 159.143554688 -31.400390625 151.701171875 -31.400390625 c 0
 151.701171875 -31.400390625 151.701171875 -31.400390625 151.700195312 -31.400390625 c 0
288.922851562 -30.130859375 m 0
 281.479492188 -30.130859375 275.438476562 -24.08984375 275.438476562 -16.646484375 c 0
 275.438476562 259.60546875 l 2
 275.438476562 267.048828125 281.479492188 273.08984375 288.922851562 273.08984375 c 0
 296.366210938 273.08984375 302.407226562 267.048828125 302.407226562 259.60546875 c 2
 302.407226562 -16.646484375 l 2
 302.407226562 -24.08984375 296.366210938 -30.130859375 288.923828125 -30.130859375 c 0
 288.923828125 -30.130859375 288.922851562 -30.130859375 288.922851562 -30.130859375 c 0
429.228515625 -30.130859375 m 0
 421.78515625 -30.130859375 415.744140625 -24.08984375 415.744140625 -16.646484375 c 0
 415.744140625 259.60546875 l 2
 415.744140625 267.048828125 421.78515625 273.08984375 429.228515625 273.08984375 c 0
 436.672851562 273.08984375 442.712890625 267.048828125 442.712890625 259.60546875 c 2
 442.712890625 -16.646484375 l 2
 442.712890625 -24.08984375 436.672851562 -30.130859375 429.229492188 -30.130859375 c 0
 429.228515625 -30.130859375 429.228515625 -30.130859375 429.228515625 -30.130859375 c 0
429.228515625 522.37109375 m 2
 288.922851562 522.37109375 l 2
 281.479492188 522.37109375 275.438476562 528.412109375 275.438476562 535.85546875 c 0
 275.438476562 543.297851562 281.479492188 549.338867188 288.922851562 549.338867188 c 2
 429.228515625 549.338867188 l 2
 436.672851562 549.338867188 442.712890625 543.297851562 442.712890625 535.85546875 c 0
 442.712890625 528.412109375 436.672851562 522.37109375 429.228515625 522.37109375 c 2
429.228515625 385.524414062 m 2
 13.529296875 385.524414062 l 2
 6.0859375 385.524414062 0.044921875 391.565429688 0.044921875 399.0078125 c 0
 0.044921875 406.452148438 6.0859375 412.4921875 13.529296875 412.4921875 c 2
 429.228515625 412.4921875 l 2
 436.672851562 412.4921875 442.712890625 406.452148438 442.712890625 399.0078125 c 0
 442.712890625 391.565429688 436.672851562 385.524414062 429.228515625 385.524414062 c 2
288.922851562 246.12109375 m 2
 13.484375 246.12109375 l 2
 6.041015625 246.12109375 0 252.162109375 0 259.60546875 c 0
 0 267.048828125 6.041015625 273.08984375 13.484375 273.08984375 c 2
 288.922851562 273.08984375 l 2
 296.366210938 273.08984375 302.407226562 267.048828125 302.407226562 259.60546875 c 0
 302.407226562 252.162109375 296.366210938 246.12109375 288.922851562 246.12109375 c 2
EndSplineSet
Validated: 5
EndChar

StartChar: l
Encoding: 108 108 11
Width: 233
VWidth: 0
Flags: HW
HStem: 807 20G<11.2686 19.8506 172.545 181.127>
VStem: 0 31.0957<-170.134 826.995> 161.288 31.0957<-171.626 826.995>
LayerCount: 2
Fore
SplineSet
14.0703125 -28.220703125 m 1
 14.0703125 -28.220703125 l 1
 14.0703125 -28.220703125 14.0703125 -28.220703125 14.0703125 -28.220703125 c 0
 6.7197265625 -28.220703125 0.75390625 -22.2548828125 0.75390625 -14.904296875 c 0
 0.75390625 -14.904296875 0.75390625 -14.904296875 0.75390625 -14.9033203125 c 2
 0.763671875 814.18359375 l 2
 0.7646484375 821.533203125 6.7294921875 827.5 14.080078125 827.5 c 1
 14.080078125 827.5 l 1
 21.4306640625 827.5 27.396484375 821.534179688 27.396484375 814.18359375 c 2
 27.3876953125 -14.9033203125 l 2
 27.3876953125 -22.25390625 21.4208984375 -28.220703125 14.0703125 -28.220703125 c 1
152.296875 -29.5 m 0
 152.296875 -29.5 152.295898438 -29.5 152.295898438 -29.5 c 0
 144.9453125 -29.5 138.979492188 -23.5341796875 138.979492188 -16.18359375 c 0
 138.979492188 -16.18359375 138.979492188 -16.18359375 138.979492188 -16.18359375 c 2
 138.979492188 814.18359375 l 2
 138.979492188 821.534179688 144.946289062 827.5 152.296875 827.5 c 0
 159.647460938 827.5 165.61328125 821.534179688 165.61328125 814.18359375 c 2
 165.61328125 -16.18359375 l 2
 165.61328125 -16.18359375 165.61328125 -16.18359375 165.61328125 -16.18359375 c 0
 165.61328125 -23.5341796875 159.647460938 -29.5 152.296875 -29.5 c 0
 152.296875 -29.5 152.296875 -29.5 152.296875 -29.5 c 0
EndSplineSet
Validated: 5
EndChar

StartChar: m
Encoding: 109 109 12
Width: 624
VWidth: 0
Flags: W
HStem: 378.895 26.458<5.92676 563.806> 515.331 26.459<5.92676 427.987>
VStem: 0 26.458<-25.9729 378.895 405.353 515.331 528.561 535.863> 135.817 26.459<-25.9617 535.873> 271.637 26.458<-25.9729 535.879> 407.455 26.459<-25.9617 535.873> 543.273 26.459<-29.1959 399.426>
LayerCount: 2
Fore
SplineSet
13.2294921875 -29.2001953125 m 0
 13.228515625 -29.2001953125 13.228515625 -29.2001953125 13.228515625 -29.2001953125 c 0
 5.9267578125 -29.2001953125 0 -23.2734375 0 -15.970703125 c 0
 0 528.560546875 l 2
 0 535.86328125 5.9267578125 541.790039062 13.2294921875 541.790039062 c 0
 20.5322265625 541.790039062 26.4580078125 535.86328125 26.4580078125 528.560546875 c 2
 26.4580078125 -15.970703125 l 2
 26.4580078125 -23.2734375 20.5322265625 -29.2001953125 13.23046875 -29.2001953125 c 0
 13.2294921875 -29.2001953125 13.2294921875 -29.2001953125 13.2294921875 -29.2001953125 c 0
149.046875 -29.1884765625 m 0
 141.744140625 -29.1884765625 135.817382812 -23.2626953125 135.817382812 -15.9609375 c 0
 135.817382812 -15.9599609375 135.817382812 -15.9599609375 135.817382812 -15.9599609375 c 2
 135.817382812 528.5703125 l 2
 135.817382812 535.873046875 141.744140625 541.799804688 149.046875 541.799804688 c 0
 156.349609375 541.799804688 162.276367188 535.873046875 162.276367188 528.5703125 c 2
 162.276367188 -15.9599609375 l 2
 162.276367188 -15.9599609375 162.276367188 -15.9599609375 162.276367188 -15.9609375 c 0
 162.276367188 -23.2626953125 156.349609375 -29.1884765625 149.047851562 -29.1884765625 c 0
 149.047851562 -29.1884765625 149.046875 -29.1884765625 149.046875 -29.1884765625 c 0
284.866210938 -29.2001953125 m 0
 284.866210938 -29.2001953125 284.866210938 -29.2001953125 284.865234375 -29.2001953125 c 0
 277.563476562 -29.2001953125 271.63671875 -23.2734375 271.63671875 -15.970703125 c 0
 271.63671875 528.560546875 l 2
 271.63671875 528.565429688 271.63671875 528.572265625 271.63671875 528.576171875 c 0
 271.63671875 535.87890625 277.563476562 541.8046875 284.865234375 541.8046875 c 0
 292.16796875 541.8046875 298.094726562 535.87890625 298.094726562 528.576171875 c 0
 298.094726562 528.572265625 298.094726562 528.565429688 298.094726562 528.560546875 c 2
 298.094726562 -15.970703125 l 2
 298.094726562 -15.970703125 298.094726562 -15.970703125 298.094726562 -15.9716796875 c 0
 298.094726562 -23.2734375 292.16796875 -29.2001953125 284.866210938 -29.2001953125 c 0
420.684570312 -29.1884765625 m 0
 413.381835938 -29.1884765625 407.455078125 -23.2626953125 407.455078125 -15.9609375 c 0
 407.455078125 -15.9599609375 407.455078125 -15.9599609375 407.455078125 -15.9599609375 c 2
 407.455078125 528.5703125 l 2
 407.455078125 535.873046875 413.381835938 541.799804688 420.684570312 541.799804688 c 0
 427.987304688 541.799804688 433.9140625 535.873046875 433.9140625 528.5703125 c 2
 433.9140625 -15.9599609375 l 2
 433.9140625 -15.9599609375 433.9140625 -15.9599609375 433.9140625 -15.9609375 c 0
 433.9140625 -23.2626953125 427.98828125 -29.1884765625 420.685546875 -29.1884765625 c 0
 420.685546875 -29.1884765625 420.684570312 -29.1884765625 420.684570312 -29.1884765625 c 0
556.502929688 -29.2001953125 m 0
 549.200195312 -29.2001953125 543.2734375 -23.2734375 543.2734375 -15.970703125 c 0
 543.2734375 392.123046875 l 2
 543.2734375 399.42578125 549.200195312 405.352539062 556.502929688 405.352539062 c 0
 563.805664062 405.352539062 569.732421875 399.42578125 569.732421875 392.123046875 c 2
 569.732421875 -15.970703125 l 2
 569.732421875 -23.2734375 563.805664062 -29.2001953125 556.502929688 -29.2001953125 c 0
13.2294921875 515.331054688 m 2
 5.9267578125 515.331054688 0 521.2578125 0 528.560546875 c 0
 0 535.86328125 5.9267578125 541.790039062 13.2294921875 541.790039062 c 2
 420.684570312 541.799804688 l 2
 427.987304688 541.799804688 433.9140625 535.873046875 433.9140625 528.5703125 c 0
 433.9140625 521.267578125 427.987304688 515.341796875 420.684570312 515.341796875 c 2
 13.2294921875 515.331054688 l 2
556.502929688 378.89453125 m 2
 13.2294921875 378.89453125 l 2
 5.9267578125 378.89453125 0 384.8203125 0 392.123046875 c 0
 0 399.42578125 5.9267578125 405.352539062 13.2294921875 405.352539062 c 2
 556.502929688 405.352539062 l 2
 563.805664062 405.352539062 569.732421875 399.42578125 569.732421875 392.123046875 c 0
 569.732421875 384.8203125 563.805664062 378.89453125 556.502929688 378.89453125 c 2
EndSplineSet
Validated: 5
EndChar

StartChar: n
Encoding: 110 110 13
Width: 499
VWidth: 0
Flags: W
HStem: 382.878 26.4795<5.93164 427.989> 519.31 26.4805<5.93164 427.989>
VStem: 0 26.4805<-21.9703 382.878 409.357 519.31 532.55 539.858> 135.813 26.4795<-21.9609 539.868> 271.627 26.4795<-21.9703 539.858> 407.44 26.4795<-21.9609 539.868>
LayerCount: 2
Fore
SplineSet
13.240234375 -25.2001953125 m 0
 13.240234375 -25.2001953125 13.2392578125 -25.2001953125 13.2392578125 -25.2001953125 c 0
 5.931640625 -25.2001953125 0 -19.2685546875 0 -11.9609375 c 0
 0 -11.9609375 0 -11.9599609375 0 -11.9599609375 c 2
 0 532.549804688 l 2
 0 539.858398438 5.931640625 545.790039062 13.240234375 545.790039062 c 0
 20.548828125 545.790039062 26.48046875 539.858398438 26.48046875 532.549804688 c 2
 26.48046875 -11.9599609375 l 2
 26.48046875 -11.9599609375 26.48046875 -11.9609375 26.48046875 -11.9609375 c 0
 26.48046875 -19.2685546875 20.548828125 -25.2001953125 13.240234375 -25.2001953125 c 0
149.053710938 -25.1904296875 m 0
 149.053710938 -25.1904296875 149.052734375 -25.1904296875 149.052734375 -25.1904296875 c 0
 141.744140625 -25.1904296875 135.813476562 -19.259765625 135.813476562 -11.951171875 c 0
 135.813476562 -11.951171875 135.813476562 -11.951171875 135.813476562 -11.9501953125 c 2
 135.813476562 532.559570312 l 2
 135.813476562 539.868164062 141.744140625 545.799804688 149.053710938 545.799804688 c 0
 156.362304688 545.799804688 162.29296875 539.868164062 162.29296875 532.559570312 c 2
 162.29296875 -11.9501953125 l 2
 162.29296875 -11.951171875 162.29296875 -11.951171875 162.29296875 -11.951171875 c 0
 162.29296875 -19.259765625 156.362304688 -25.1904296875 149.053710938 -25.1904296875 c 0
284.866210938 -25.2001953125 m 0
 277.557617188 -25.2001953125 271.626953125 -19.2685546875 271.626953125 -11.9609375 c 0
 271.626953125 -11.9609375 271.626953125 -11.9599609375 271.626953125 -11.9599609375 c 2
 271.626953125 532.549804688 l 2
 271.626953125 539.858398438 277.557617188 545.790039062 284.866210938 545.790039062 c 0
 292.174804688 545.790039062 298.106445312 539.858398438 298.106445312 532.549804688 c 2
 298.106445312 -11.9599609375 l 2
 298.106445312 -11.9599609375 298.106445312 -11.9609375 298.106445312 -11.9609375 c 0
 298.106445312 -19.2685546875 292.174804688 -25.2001953125 284.8671875 -25.2001953125 c 0
 284.8671875 -25.2001953125 284.866210938 -25.2001953125 284.866210938 -25.2001953125 c 0
420.680664062 -25.1904296875 m 0
 420.680664062 -25.1904296875 420.680664062 -25.1904296875 420.6796875 -25.1904296875 c 0
 413.372070312 -25.1904296875 407.440429688 -19.259765625 407.440429688 -11.951171875 c 0
 407.440429688 -11.951171875 407.440429688 -11.951171875 407.440429688 -11.9501953125 c 2
 407.440429688 532.559570312 l 2
 407.440429688 539.868164062 413.372070312 545.799804688 420.680664062 545.799804688 c 0
 427.989257812 545.799804688 433.919921875 539.868164062 433.919921875 532.559570312 c 2
 433.919921875 -11.9501953125 l 2
 433.919921875 -11.951171875 433.919921875 -11.951171875 433.919921875 -11.951171875 c 0
 433.919921875 -19.259765625 427.989257812 -25.1904296875 420.680664062 -25.1904296875 c 0
13.240234375 519.309570312 m 2
 5.931640625 519.309570312 0 525.241210938 0 532.549804688 c 0
 0 539.858398438 5.931640625 545.790039062 13.240234375 545.790039062 c 2
 420.680664062 545.799804688 l 2
 427.989257812 545.799804688 433.919921875 539.868164062 433.919921875 532.559570312 c 0
 433.919921875 525.250976562 427.989257812 519.3203125 420.680664062 519.3203125 c 2
 13.240234375 519.309570312 l 2
420.680664062 382.877929688 m 2
 13.240234375 382.877929688 l 2
 5.931640625 382.877929688 0 388.80859375 0 396.118164062 c 0
 0 403.426757812 5.931640625 409.357421875 13.240234375 409.357421875 c 2
 420.680664062 409.357421875 l 2
 427.989257812 409.357421875 433.919921875 403.426757812 433.919921875 396.118164062 c 0
 433.919921875 388.80859375 427.989257812 382.877929688 420.680664062 382.877929688 c 2
EndSplineSet
Validated: 5
EndChar

StartChar: o
Encoding: 111 111 14
Width: 500
VWidth: 0
Flags: HWO
HStem: 195.276 6.55681<258.218 396.603> 240.119 6.55681<258.222 396.607> 329.758 6.55649<258.222 396.607> 374.885 6.55681<258.222 396.607>
VStem: 256.749 6.55681<196.744 198.554 201.832 240.119 246.676 329.758 336.315 374.885 378.163 379.973> 301.675 6.55681<196.744 379.977> 346.597 6.55681<196.744 379.973> 391.519 6.55267<196.744 379.977>
LayerCount: 2
Fore
SplineSet
14.6708984375 -24.5 m 1
 14.6708984375 -24.5 l 1
 14.6708984375 -24.5 14.669921875 -24.5 14.669921875 -24.5 c 0
 7.3623046875 -24.5 1.4306640625 -18.568359375 1.4306640625 -11.2607421875 c 0
 1.4306640625 -11.2607421875 1.4306640625 -11.259765625 1.4306640625 -11.259765625 c 2
 1.443359375 533.25 l 2
 1.4443359375 540.557617188 7.375 546.489257812 14.68359375 546.490234375 c 1
 14.68359375 546.490234375 l 1
 21.9921875 546.490234375 27.923828125 540.557617188 27.923828125 533.25 c 2
 27.9111328125 -11.259765625 l 2
 27.9111328125 -18.568359375 21.9794921875 -24.5 14.6708984375 -24.5 c 1
150.870117188 -24.5 m 0
 150.870117188 -24.5 150.869140625 -24.5 150.869140625 -24.5 c 0
 143.561523438 -24.5 137.629882812 -18.568359375 137.629882812 -11.2607421875 c 0
 137.629882812 -11.2607421875 137.629882812 -11.259765625 137.629882812 -11.259765625 c 2
 137.629882812 533.259765625 l 2
 137.629882812 540.568359375 143.561523438 546.5 150.870117188 546.5 c 0
 158.177734375 546.5 164.109375 540.568359375 164.109375 533.259765625 c 2
 164.109375 -11.259765625 l 2
 164.109375 -11.259765625 164.109375 -11.2607421875 164.109375 -11.2607421875 c 0
 164.109375 -18.568359375 158.178710938 -24.5 150.870117188 -24.5 c 0
 150.870117188 -24.5 150.870117188 -24.5 150.870117188 -24.5 c 0
287.056640625 -24.5 m 0
 287.056640625 -24.5 287.055664062 -24.5 287.055664062 -24.5 c 0
 279.748046875 -24.5 273.81640625 -18.568359375 273.81640625 -11.2607421875 c 0
 273.81640625 -11.2607421875 273.81640625 -11.259765625 273.81640625 -11.259765625 c 2
 273.81640625 533.25 l 2
 273.81640625 540.557617188 279.748046875 546.490234375 287.056640625 546.490234375 c 0
 294.365234375 546.490234375 300.296875 540.557617188 300.296875 533.25 c 2
 300.296875 -11.259765625 l 2
 300.296875 -11.259765625 300.296875 -11.2607421875 300.296875 -11.2607421875 c 0
 300.296875 -18.568359375 294.365234375 -24.5 287.057617188 -24.5 c 0
 287.057617188 -24.5 287.056640625 -24.5 287.056640625 -24.5 c 0
423.243164062 -24.5 m 0
 423.243164062 -24.5 423.243164062 -24.5 423.243164062 -24.5 c 0
 415.934570312 -24.5 410.002929688 -18.568359375 410.002929688 -11.2607421875 c 0
 410.002929688 -11.2607421875 410.002929688 -11.259765625 410.002929688 -11.259765625 c 2
 410.002929688 533.259765625 l 2
 410.002929688 540.568359375 415.935546875 546.5 423.243164062 546.5 c 0
 430.551757812 546.5 436.483398438 540.568359375 436.483398438 533.259765625 c 2
 436.483398438 -11.259765625 l 2
 436.483398438 -11.259765625 436.483398438 -11.2607421875 436.483398438 -11.2607421875 c 0
 436.483398438 -18.568359375 430.551757812 -24.5 423.244140625 -24.5 c 0
 423.244140625 -24.5 423.244140625 -24.5 423.243164062 -24.5 c 0
14.68359375 520.009765625 m 2
 7.375 520.009765625 1.443359375 525.94140625 1.443359375 533.25 c 0
 1.443359375 540.557617188 7.375 546.490234375 14.68359375 546.490234375 c 2
 423.243164062 546.5 l 2
 430.551757812 546.5 436.483398438 540.568359375 436.483398438 533.259765625 c 0
 436.483398438 525.951171875 430.551757812 520.01953125 423.243164062 520.01953125 c 2
 14.68359375 520.009765625 l 2
423.243164062 383.202148438 m 2
 14.68359375 383.202148438 l 2
 7.375 383.202148438 1.443359375 389.133789062 1.443359375 396.442382812 c 0
 1.443359375 403.750976562 7.375 409.681640625 14.68359375 409.681640625 c 2
 423.243164062 409.681640625 l 2
 430.551757812 409.681640625 436.483398438 403.750976562 436.483398438 396.442382812 c 0
 436.483398438 389.133789062 430.551757812 383.202148438 423.243164062 383.202148438 c 2
14.68359375 111.450195312 m 2
 7.375 111.450195312 1.443359375 117.3828125 1.443359375 124.690429688 c 0
 1.443359375 131.999023438 7.375 137.930664062 14.68359375 137.930664062 c 2
 423.243164062 137.940429688 l 2
 430.551757812 137.940429688 436.483398438 132.008789062 436.483398438 124.700195312 c 0
 436.483398438 117.391601562 430.551757812 111.459960938 423.243164062 111.459960938 c 2
 14.68359375 111.450195312 l 2
423.23046875 -24.5 m 2
 14.6708984375 -24.5 l 2
 7.3623046875 -24.5 1.4306640625 -18.568359375 1.4306640625 -11.259765625 c 0
 1.4306640625 -3.951171875 7.3623046875 1.98046875 14.6708984375 1.98046875 c 2
 423.23046875 1.98046875 l 2
 430.5390625 1.98046875 436.470703125 -3.951171875 436.470703125 -11.259765625 c 0
 436.470703125 -18.568359375 430.5390625 -24.5 423.23046875 -24.5 c 2
EndSplineSet
EndChar

StartChar: p
Encoding: 112 112 15
Width: 502
VWidth: 0
Flags: HW
HStem: -22.7998 21G<9.66943 17.0425 146.998 154.371> 114.538 26.7119<5.9834 432.713> 252.493 26.7109<5.9834 432.713> 526.524 26.7109<5.9834 432.713> 664.478 26.7119<5.9834 432.713>
VStem: 0 26.7119<-19.7488 114.538 141.25 252.493 279.204 526.524 553.235 664.478 677.834 685.206> 137.328 26.7119<-19.7488 685.217> 274.658 26.7109<121.386 685.206> 411.984 26.7119<120.521 685.217>
LayerCount: 2
Fore
SplineSet
13.35546875 -162.799804688 m 4
 5.9833984375 -162.799804688 0 -156.81640625 0 -149.444335938 c 4
 0 537.833984375 l 6
 0 545.206054688 5.9833984375 551.189453125 13.35546875 551.189453125 c 4
 20.728515625 551.189453125 26.7119140625 545.206054688 26.7119140625 537.833984375 c 6
 26.7119140625 -149.444335938 l 6
 26.7119140625 -156.81640625 20.728515625 -162.799804688 13.3564453125 -162.799804688 c 4
 13.3564453125 -162.799804688 13.3564453125 -162.799804688 13.35546875 -162.799804688 c 4
150.684570312 -162.799804688 m 4
 150.684570312 -162.799804688 150.68359375 -162.799804688 150.68359375 -162.799804688 c 4
 143.311523438 -162.799804688 137.328125 -156.81640625 137.328125 -149.444335938 c 4
 137.328125 537.844726562 l 6
 137.328125 545.216796875 143.311523438 551.200195312 150.684570312 551.200195312 c 4
 158.056640625 551.200195312 164.040039062 545.216796875 164.040039062 537.844726562 c 6
 164.040039062 -149.444335938 l 6
 164.040039062 -156.81640625 158.056640625 -162.799804688 150.685546875 -162.799804688 c 4
 150.684570312 -162.799804688 150.684570312 -162.799804688 150.684570312 -162.799804688 c 4
288.013671875 -24.5966796875 m 4
 288.013671875 -24.5966796875 288.013671875 -24.5966796875 288.012695312 -24.5966796875 c 4
 280.640625 -24.5966796875 274.658203125 -18.6142578125 274.658203125 -11.2421875 c 4
 274.658203125 -11.2421875 274.658203125 -11.2412109375 274.658203125 -11.2412109375 c 6
 274.658203125 537.833984375 l 6
 274.658203125 545.206054688 280.640625 551.189453125 288.013671875 551.189453125 c 4
 295.385742188 551.189453125 301.369140625 545.206054688 301.369140625 537.833984375 c 6
 301.369140625 -11.2412109375 l 6
 301.369140625 -11.2412109375 301.369140625 -11.2421875 301.369140625 -11.2421875 c 4
 301.369140625 -18.6142578125 295.385742188 -24.5966796875 288.013671875 -24.5966796875 c 4
425.340820312 -25.4619140625 m 4
 425.33984375 -25.4619140625 425.33984375 -25.4619140625 425.33984375 -25.4619140625 c 4
 417.967773438 -25.4619140625 411.984375 -19.478515625 411.984375 -12.107421875 c 4
 411.984375 -12.1064453125 411.984375 -12.1064453125 411.984375 -12.1064453125 c 6
 411.984375 537.844726562 l 6
 411.984375 545.216796875 417.967773438 551.200195312 425.340820312 551.200195312 c 4
 432.712890625 551.200195312 438.696289062 545.216796875 438.696289062 537.844726562 c 6
 438.696289062 -12.1064453125 l 6
 438.696289062 -12.1064453125 438.696289062 -12.1064453125 438.696289062 -12.107421875 c 4
 438.696289062 -19.478515625 432.712890625 -25.4619140625 425.340820312 -25.4619140625 c 4
13.35546875 524.477539062 m 6
 5.9833984375 524.477539062 0 530.461914062 0 537.833984375 c 4
 0 545.206054688 5.9833984375 551.189453125 13.35546875 551.189453125 c 6
 425.340820312 551.200195312 l 6
 432.712890625 551.200195312 438.696289062 545.216796875 438.696289062 537.844726562 c 4
 438.696289062 530.471679688 432.712890625 524.48828125 425.340820312 524.48828125 c 6
 13.35546875 524.477539062 l 6
425.340820312 386.524414062 m 6
 13.35546875 386.524414062 l 6
 5.9833984375 386.524414062 0 392.5078125 0 399.879882812 c 4
 0 407.251953125 5.9833984375 413.235351562 13.35546875 413.235351562 c 6
 425.340820312 413.235351562 l 6
 432.712890625 413.235351562 438.696289062 407.251953125 438.696289062 399.879882812 c 4
 438.696289062 392.5078125 432.712890625 386.524414062 425.340820312 386.524414062 c 6
13.35546875 112.493164062 m 6
 5.9833984375 112.493164062 0 118.4765625 0 125.848632812 c 4
 0 133.221679688 5.9833984375 139.204101562 13.35546875 139.204101562 c 6
 425.340820312 139.215820312 l 6
 432.712890625 139.215820312 438.696289062 133.232421875 438.696289062 125.859375 c 4
 438.696289062 118.487304688 432.712890625 112.50390625 425.340820312 112.50390625 c 6
 13.35546875 112.493164062 l 6
425.340820312 -25.4619140625 m 6
 13.35546875 -25.4619140625 l 6
 5.9833984375 -25.4619140625 0 -19.478515625 0 -12.1064453125 c 4
 0 -4.734375 5.9833984375 1.25 13.35546875 1.25 c 6
 425.340820312 1.25 l 6
 432.712890625 1.25 438.696289062 -4.734375 438.696289062 -12.1064453125 c 4
 438.696289062 -19.478515625 432.712890625 -25.4619140625 425.340820312 -25.4619140625 c 6
EndSplineSet
Validated: 524293
EndChar

StartChar: q
Encoding: 113 113 16
Width: 499
VWidth: 0
Flags: HW
HStem: 118.529 26.7559<5.99316 432.721> 256.475 26.7559<5.99316 432.721> 530.488 26.7549<5.99316 432.721> 668.434 26.7549<5.99316 432.721>
VStem: 0 26.7559<124.522 131.906 131.907 131.907 145.285 256.475 283.23 530.488 557.243 668.434 681.812 689.196> 137.319 26.7549<124.522 689.206> 274.639 26.7549<-14.9489 689.194> 411.958 26.7559<-15.7438 689.207>
LayerCount: 2
Fore
SplineSet
13.3779296875 -28.470703125 m 4
 13.3779296875 -28.470703125 13.376953125 -28.470703125 13.376953125 -28.470703125 c 4
 5.9931640625 -28.470703125 0 -22.4775390625 0 -15.09375 c 4
 0 -15.0927734375 0 -15.0927734375 0 -15.0927734375 c 6
 0 534.811523438 l 6
 0 542.196289062 5.9931640625 548.188476562 13.3779296875 548.188476562 c 4
 20.76171875 548.188476562 26.755859375 542.196289062 26.755859375 534.811523438 c 6
 26.755859375 -15.0927734375 l 6
 26.755859375 -15.0927734375 26.755859375 -15.0927734375 26.755859375 -15.09375 c 4
 26.755859375 -22.4775390625 20.7626953125 -28.470703125 13.37890625 -28.470703125 c 4
 13.3779296875 -28.470703125 13.3779296875 -28.470703125 13.3779296875 -28.470703125 c 4
150.696289062 -28.470703125 m 4
 143.3125 -28.470703125 137.319335938 -22.4775390625 137.319335938 -15.09375 c 4
 137.319335938 -15.0927734375 137.319335938 -15.0927734375 137.319335938 -15.0927734375 c 6
 137.319335938 534.821289062 l 6
 137.319335938 542.206054688 143.3125 548.19921875 150.696289062 548.19921875 c 4
 158.081054688 548.19921875 164.07421875 542.206054688 164.07421875 534.821289062 c 6
 164.07421875 -15.0927734375 l 6
 164.07421875 -15.0927734375 164.07421875 -15.0927734375 164.07421875 -15.09375 c 4
 164.07421875 -22.4775390625 158.081054688 -28.470703125 150.697265625 -28.470703125 c 4
 150.697265625 -28.470703125 150.697265625 -28.470703125 150.696289062 -28.470703125 c 4
288.015625 -165.004882812 m 4
 280.630859375 -165.004882812 274.638671875 -159.01171875 274.638671875 -151.627929688 c 4
 274.638671875 -151.627929688 274.638671875 -151.626953125 274.638671875 -151.626953125 c 6
 274.638671875 534.810546875 l 6
 274.638671875 542.194335938 280.631835938 548.188476562 288.015625 548.188476562 c 4
 295.400390625 548.188476562 301.393554688 542.194335938 301.393554688 534.810546875 c 6
 301.393554688 -151.626953125 l 6
 301.393554688 -151.626953125 301.393554688 -151.626953125 301.393554688 -151.627929688 c 4
 301.393554688 -159.01171875 295.400390625 -165.004882812 288.016601562 -165.004882812 c 4
 288.016601562 -165.004882812 288.015625 -165.004882812 288.015625 -165.004882812 c 4
425.3359375 -165.799804688 m 4
 417.951171875 -165.799804688 411.958007812 -159.806640625 411.958007812 -152.422851562 c 4
 411.958007812 -152.422851562 411.958007812 -152.421875 411.958007812 -152.421875 c 6
 411.958007812 534.822265625 l 6
 411.958007812 542.20703125 417.952148438 548.200195312 425.3359375 548.200195312 c 4
 432.720703125 548.200195312 438.713867188 542.20703125 438.713867188 534.822265625 c 6
 438.713867188 -152.421875 l 6
 438.713867188 -152.421875 438.713867188 -152.422851562 438.713867188 -152.422851562 c 4
 438.713867188 -159.806640625 432.720703125 -165.799804688 425.336914062 -165.799804688 c 4
 425.336914062 -165.799804688 425.3359375 -165.799804688 425.3359375 -165.799804688 c 4
13.3779296875 521.43359375 m 6
 5.9931640625 521.43359375 0 527.426757812 0 534.811523438 c 4
 0 542.196289062 5.9931640625 548.188476562 13.3779296875 548.188476562 c 6
 425.3359375 548.19921875 l 6
 432.720703125 548.19921875 438.713867188 542.206054688 438.713867188 534.821289062 c 4
 438.713867188 527.436523438 432.720703125 521.443359375 425.3359375 521.443359375 c 6
 13.3779296875 521.43359375 l 6
425.3359375 383.48828125 m 6
 13.3779296875 383.48828125 l 6
 5.9931640625 383.48828125 0 389.481445312 0 396.865234375 c 4
 0 404.25 5.9931640625 410.243164062 13.3779296875 410.243164062 c 6
 425.3359375 410.243164062 l 6
 432.720703125 410.243164062 438.713867188 404.25 438.713867188 396.865234375 c 4
 438.713867188 389.481445312 432.720703125 383.48828125 425.3359375 383.48828125 c 6
13.3779296875 109.474609375 m 6
 5.9931640625 109.474609375 0 115.467773438 0 122.852539062 c 4
 0 130.236328125 5.9931640625 136.23046875 13.3779296875 136.23046875 c 6
 425.3359375 136.239257812 l 6
 432.720703125 136.239257812 438.713867188 130.24609375 438.713867188 122.861328125 c 4
 438.713867188 115.477539062 432.720703125 109.484375 425.3359375 109.484375 c 6
 13.3779296875 109.474609375 l 6
425.3359375 -28.470703125 m 6
 13.3779296875 -28.470703125 l 6
 5.9931640625 -28.470703125 0 -22.4765625 0 -15.0927734375 c 4
 0 -7.7080078125 5.9931640625 -1.71484375 13.3779296875 -1.71484375 c 6
 425.3359375 -1.71484375 l 6
 432.720703125 -1.71484375 438.713867188 -7.7080078125 438.713867188 -15.0927734375 c 4
 438.713867188 -22.4765625 432.720703125 -28.470703125 425.3359375 -28.470703125 c 6
EndSplineSet
Validated: 524293
EndChar

StartChar: r
Encoding: 114 114 17
Width: 356
VWidth: 0
Flags: W
HStem: 384.052 26.249<5.87988 296.728> 520.542 26.248<5.87988 296.728>
VStem: 0 26.248<-20.7894 384.052 410.301 520.542 533.666 540.91> 135.871 26.2471<-20.7802 540.937>
LayerCount: 2
Fore
SplineSet
13.1240234375 -24.2001953125 m 0
 13.1240234375 -24.2001953125 13.123046875 -24.2001953125 13.123046875 -24.2001953125 c 0
 5.8798828125 -24.2001953125 0 -18.3203125 0 -11.076171875 c 0
 0 533.666015625 l 2
 0 540.91015625 5.8798828125 546.790039062 13.1240234375 546.790039062 c 0
 20.3681640625 546.790039062 26.248046875 540.91015625 26.248046875 533.666015625 c 2
 26.248046875 -11.076171875 l 2
 26.248046875 -18.3203125 20.3681640625 -24.2001953125 13.125 -24.2001953125 c 0
 13.125 -24.2001953125 13.1240234375 -24.2001953125 13.1240234375 -24.2001953125 c 0
148.995117188 -24.19140625 m 0
 148.995117188 -24.19140625 148.994140625 -24.19140625 148.994140625 -24.19140625 c 0
 141.75 -24.19140625 135.87109375 -18.3115234375 135.87109375 -11.0673828125 c 0
 135.87109375 533.67578125 l 2
 135.87109375 533.680664062 135.87109375 533.6875 135.87109375 533.69140625 c 0
 135.87109375 540.936523438 141.75 546.815429688 148.994140625 546.815429688 c 0
 156.23828125 546.815429688 162.118164062 540.936523438 162.118164062 533.69140625 c 0
 162.118164062 533.6875 162.118164062 533.680664062 162.118164062 533.67578125 c 2
 162.118164062 -11.0673828125 l 2
 162.118164062 -18.3115234375 156.23828125 -24.1904296875 148.995117188 -24.19140625 c 0
13.125 520.541992188 m 2
 13.125 520.541992188 13.125 520.541992188 13.1240234375 520.541992188 c 0
 5.8798828125 520.541992188 0 526.420898438 0 533.666015625 c 0
 0 540.91015625 5.87890625 546.7890625 13.123046875 546.790039062 c 2
 283.608398438 546.799804688 l 2
 290.8515625 546.799804688 296.732421875 540.920898438 296.732421875 533.67578125 c 0
 296.732421875 526.431640625 290.8515625 520.551757812 283.608398438 520.551757812 c 2
 13.125 520.541992188 l 2
283.608398438 384.051757812 m 2
 13.1240234375 384.051757812 l 2
 5.8798828125 384.051757812 0 389.931640625 0 397.17578125 c 0
 0 404.420898438 5.8798828125 410.30078125 13.1240234375 410.30078125 c 2
 283.608398438 410.30078125 l 2
 290.8515625 410.30078125 296.732421875 404.420898438 296.732421875 397.17578125 c 0
 296.732421875 389.931640625 290.8515625 384.051757812 283.608398438 384.051757812 c 2
EndSplineSet
Validated: 5
EndChar

StartChar: s
Encoding: 115 115 18
Width: 500
VWidth: 0
Flags: W
HStem: -24.2002 26.4258<0.00431854 428.465> 112.406 26.4268<0.00431854 428.465> 248.508 25.6914<5.91992 428.465> 383.758 26.4268<5.91992 428.465> 520.364 26.4258<5.91992 434.38>
VStem: 0 26.4258<254.428 261.721 274.199 383.758 410.185 520.364 533.581 540.874> 135.986 26.4268<254.428 540.879> 271.973 26.4258<-16.9541 404.938> 407.958 26.4268<-17.4258 404.946>
LayerCount: 2
Fore
SplineSet
13.212890625 248.5078125 m 0
 5.9189453125 248.5078125 0 254.427734375 0 261.720703125 c 0
 0 533.581054688 l 2
 0 540.874023438 5.919921875 546.79296875 13.212890625 546.79296875 c 0
 20.5068359375 546.79296875 26.42578125 540.874023438 26.42578125 533.581054688 c 2
 26.42578125 261.720703125 l 2
 26.42578125 254.427734375 20.5068359375 248.5078125 13.2138671875 248.5078125 c 0
 13.212890625 248.5078125 13.212890625 248.5078125 13.212890625 248.5078125 c 0
149.19921875 248.5078125 m 0
 141.90625 248.5078125 135.986328125 254.427734375 135.986328125 261.720703125 c 0
 135.986328125 533.584960938 l 2
 135.986328125 540.87890625 141.90625 546.797851562 149.19921875 546.797851562 c 0
 156.493164062 546.797851562 162.413085938 540.87890625 162.413085938 533.584960938 c 2
 162.413085938 261.720703125 l 2
 162.413085938 254.427734375 156.493164062 248.5078125 149.200195312 248.5078125 c 0
 149.200195312 248.5078125 149.19921875 248.5078125 149.19921875 248.5078125 c 0
285.186523438 -22.873046875 m 0
 285.185546875 -22.873046875 285.185546875 -22.873046875 285.185546875 -22.873046875 c 0
 277.891601562 -22.873046875 271.97265625 -16.9541015625 271.97265625 -9.66015625 c 0
 271.97265625 -9.66015625 271.97265625 -9.6591796875 271.97265625 -9.6591796875 c 2
 271.97265625 397.64453125 l 2
 271.97265625 404.938476562 277.892578125 410.858398438 285.186523438 410.858398438 c 0
 292.479492188 410.858398438 298.3984375 404.938476562 298.3984375 397.64453125 c 2
 298.3984375 -9.6591796875 l 2
 298.3984375 -9.6591796875 298.3984375 -9.66015625 298.3984375 -9.66015625 c 0
 298.3984375 -16.9541015625 292.479492188 -22.873046875 285.186523438 -22.873046875 c 0
421.170898438 -23.3447265625 m 0
 413.876953125 -23.3447265625 407.958007812 -17.42578125 407.958007812 -10.1318359375 c 0
 407.958007812 -10.1318359375 407.958007812 -10.1318359375 407.958007812 -10.130859375 c 2
 407.958007812 397.65234375 l 2
 407.958007812 404.946289062 413.876953125 410.865234375 421.170898438 410.865234375 c 0
 428.46484375 410.865234375 434.384765625 404.946289062 434.384765625 397.65234375 c 2
 434.384765625 -10.130859375 l 2
 434.384765625 -10.1318359375 434.384765625 -10.1318359375 434.384765625 -10.1318359375 c 0
 434.384765625 -17.42578125 428.46484375 -23.3447265625 421.171875 -23.3447265625 c 0
 421.171875 -23.3447265625 421.171875 -23.3447265625 421.170898438 -23.3447265625 c 0
13.212890625 520.364257812 m 2
 5.919921875 520.364257812 0 526.283203125 0 533.577148438 c 0
 0 540.870117188 5.919921875 546.790039062 13.212890625 546.790039062 c 2
 421.170898438 546.799804688 l 2
 428.46484375 546.799804688 434.384765625 540.879882812 434.384765625 533.586914062 c 0
 434.384765625 526.29296875 428.46484375 520.374023438 421.170898438 520.374023438 c 2
 13.212890625 520.364257812 l 2
421.170898438 383.7578125 m 2
 13.212890625 383.7578125 l 2
 5.919921875 383.7578125 0 389.677734375 0 396.970703125 c 0
 0 404.264648438 5.919921875 410.184570312 13.212890625 410.184570312 c 2
 421.170898438 410.184570312 l 2
 428.46484375 410.184570312 434.384765625 404.264648438 434.384765625 396.970703125 c 0
 434.384765625 389.677734375 428.46484375 383.7578125 421.170898438 383.7578125 c 2
13.212890625 112.40625 m 2
 5.919921875 112.40625 0 118.326171875 0 125.619140625 c 0
 0 132.913085938 5.919921875 138.833007812 13.212890625 138.833007812 c 2
 421.170898438 138.841796875 l 2
 428.46484375 138.841796875 434.384765625 132.922851562 434.384765625 125.62890625 c 0
 434.384765625 118.334960938 428.46484375 112.416015625 421.170898438 112.416015625 c 2
 13.212890625 112.40625 l 2
421.170898438 -24.2001953125 m 2
 13.212890625 -24.2001953125 l 2
 5.919921875 -24.2001953125 0 -18.2802734375 0 -10.986328125 c 0
 0 -3.693359375 5.919921875 2.2255859375 13.212890625 2.2255859375 c 2
 421.170898438 2.2255859375 l 2
 428.46484375 2.2255859375 434.384765625 -3.693359375 434.384765625 -10.986328125 c 0
 434.384765625 -18.2802734375 428.46484375 -24.2001953125 421.170898438 -24.2001953125 c 2
421.170898438 247.772460938 m 2
 13.212890625 247.772460938 l 2
 5.919921875 247.772460938 0 253.69140625 0 260.985351562 c 0
 0 268.279296875 5.919921875 274.19921875 13.212890625 274.19921875 c 2
 421.170898438 274.19921875 l 2
 428.46484375 274.19921875 434.384765625 268.279296875 434.384765625 260.985351562 c 0
 434.384765625 253.69140625 428.46484375 247.772460938 421.170898438 247.772460938 c 2
EndSplineSet
Validated: 5
EndChar

StartChar: t
Encoding: 116 116 19
Width: 500
VWidth: 0
Flags: W
HStem: -30.1572 26.6475<143.122 436.833> 107.62 26.6475<143.122 436.833> 381.302 26.6475<0.00435486 436.833> 519.081 26.6475<0.00435486 436.833>
VStem: 137.153 26.6465<-30.2005 -17.4766 -3.50977 107.62 134.268 683.184> 274.307 26.6465<-30.1898 683.196>
LayerCount: 2
Fore
SplineSet
150.4765625 -30.7998046875 m 0
 143.122070312 -30.7998046875 137.153320312 -24.8310546875 137.153320312 -17.4765625 c 0
 137.153320312 669.864257812 l 2
 137.153320312 677.21875 143.122070312 683.188476562 150.4765625 683.188476562 c 0
 157.83203125 683.188476562 163.799804688 677.21875 163.799804688 669.864257812 c 2
 163.799804688 -17.4765625 l 2
 163.799804688 -24.8310546875 157.83203125 -30.7998046875 150.477539062 -30.7998046875 c 0
 150.4765625 -30.7998046875 150.4765625 -30.7998046875 150.4765625 -30.7998046875 c 0
287.629882812 -30.7890625 m 0
 287.629882812 -30.7890625 287.62890625 -30.7890625 287.62890625 -30.7890625 c 0
 280.275390625 -30.7890625 274.306640625 -24.8203125 274.306640625 -17.4658203125 c 0
 274.306640625 669.876953125 l 2
 274.306640625 677.23046875 280.275390625 683.200195312 287.629882812 683.200195312 c 0
 294.984375 683.200195312 300.953125 677.23046875 300.953125 669.876953125 c 2
 300.953125 -17.4658203125 l 2
 300.953125 -24.8203125 294.984375 -30.7890625 287.630859375 -30.7890625 c 0
 287.630859375 -30.7890625 287.629882812 -30.7890625 287.629882812 -30.7890625 c 0
13.3232421875 519.081054688 m 2
 5.9697265625 519.081054688 0 525.049804688 0 532.404296875 c 0
 0 539.758789062 5.9697265625 545.728515625 13.3232421875 545.728515625 c 2
 423.513671875 545.73828125 l 2
 430.8671875 545.73828125 436.836914062 539.76953125 436.836914062 532.415039062 c 0
 436.836914062 525.060546875 430.8671875 519.090820312 423.513671875 519.090820312 c 2
 13.3232421875 519.081054688 l 2
423.513671875 381.301757812 m 2
 13.3232421875 381.301757812 l 2
 5.9697265625 381.301757812 0 387.271484375 0 394.625976562 c 0
 0 401.98046875 5.9697265625 407.94921875 13.3232421875 407.94921875 c 2
 423.513671875 407.94921875 l 2
 430.8671875 407.94921875 436.836914062 401.98046875 436.836914062 394.625976562 c 0
 436.836914062 387.271484375 430.8671875 381.301757812 423.513671875 381.301757812 c 2
150.477539062 107.620117188 m 2
 150.477539062 107.620117188 150.4765625 107.620117188 150.4765625 107.620117188 c 0
 143.122070312 107.620117188 137.153320312 113.58984375 137.153320312 120.944335938 c 0
 137.153320312 128.298828125 143.12109375 134.267578125 150.475585938 134.267578125 c 2
 423.513671875 134.279296875 l 2
 430.8671875 134.279296875 436.836914062 128.310546875 436.836914062 120.956054688 c 0
 436.836914062 113.600585938 430.8671875 107.631835938 423.513671875 107.631835938 c 2
 150.477539062 107.620117188 l 2
423.513671875 -30.1572265625 m 2
 150.4765625 -30.1572265625 l 2
 143.122070312 -30.1572265625 137.153320312 -24.1875 137.153320312 -16.8330078125 c 0
 137.153320312 -9.478515625 143.122070312 -3.509765625 150.4765625 -3.509765625 c 2
 423.513671875 -3.509765625 l 2
 430.8671875 -3.509765625 436.836914062 -9.478515625 436.836914062 -16.8330078125 c 0
 436.836914062 -24.1875 430.8671875 -30.1572265625 423.513671875 -30.1572265625 c 2
EndSplineSet
Validated: 5
EndChar

StartChar: u
Encoding: 117 117 20
Width: 500
VWidth: 0
Flags: W
HStem: -24.0225 26.502<5.94043 427.99> 112.866 26.501<5.93652 427.988> 526.8 20G<9.59375 16.9082 145.4 152.715 281.208 288.522 417.017 424.331>
VStem: 0.00390625 26.498<-18.2529 -10.9385 2.47949 112.866 139.367 546.795> 135.807 26.502<-24.0357 546.795> 271.614 26.502<-24.0474 546.786> 407.423 26.502<-24.0357 546.795>
LayerCount: 2
Fore
SplineSet
13.2509765625 -24.1884765625 m 0
 5.9365234375 -24.1884765625 0 -18.2529296875 0 -10.9384765625 c 0
 0 533.549804688 l 2
 0 540.86328125 5.9365234375 546.799804688 13.2509765625 546.799804688 c 0
 20.5654296875 546.799804688 26.501953125 540.86328125 26.501953125 533.549804688 c 2
 26.501953125 -10.9384765625 l 2
 26.501953125 -18.2529296875 20.5654296875 -24.1884765625 13.2509765625 -24.1884765625 c 0
149.057617188 -24.1884765625 m 0
 141.743164062 -24.1884765625 135.806640625 -18.2529296875 135.806640625 -10.9384765625 c 0
 135.806640625 533.549804688 l 2
 135.806640625 540.86328125 141.743164062 546.799804688 149.057617188 546.799804688 c 0
 156.373046875 546.799804688 162.30859375 540.86328125 162.30859375 533.549804688 c 2
 162.30859375 -10.9384765625 l 2
 162.30859375 -18.2529296875 156.373046875 -24.1884765625 149.05859375 -24.1884765625 c 0
 149.05859375 -24.1884765625 149.05859375 -24.1884765625 149.057617188 -24.1884765625 c 0
284.865234375 -24.2001953125 m 0
 284.865234375 -24.2001953125 284.865234375 -24.2001953125 284.864257812 -24.2001953125 c 0
 277.549804688 -24.2001953125 271.614257812 -18.263671875 271.614257812 -10.94921875 c 0
 271.614257812 533.5390625 l 2
 271.614257812 540.853515625 277.55078125 546.790039062 284.865234375 546.790039062 c 0
 292.1796875 546.790039062 298.116210938 540.853515625 298.116210938 533.5390625 c 2
 298.116210938 -10.94921875 l 2
 298.116210938 -18.263671875 292.1796875 -24.2001953125 284.865234375 -24.2001953125 c 0
420.673828125 -24.1884765625 m 0
 420.673828125 -24.1884765625 420.673828125 -24.1884765625 420.672851562 -24.1884765625 c 0
 413.359375 -24.1884765625 407.422851562 -18.2529296875 407.422851562 -10.9384765625 c 0
 407.422851562 533.549804688 l 2
 407.422851562 540.86328125 413.359375 546.799804688 420.673828125 546.799804688 c 0
 427.98828125 546.799804688 433.924804688 540.86328125 433.924804688 533.549804688 c 2
 433.924804688 -10.9384765625 l 2
 433.924804688 -18.2529296875 427.98828125 -24.1884765625 420.673828125 -24.1884765625 c 0
13.2509765625 112.866210938 m 2
 5.9365234375 112.866210938 0 118.802734375 0 126.1171875 c 0
 0 133.430664062 5.9365234375 139.3671875 13.2509765625 139.3671875 c 2
 420.673828125 139.376953125 l 2
 427.98828125 139.376953125 433.924804688 133.440429688 433.924804688 126.125976562 c 0
 433.924804688 118.811523438 427.98828125 112.875 420.673828125 112.875 c 2
 13.2509765625 112.866210938 l 2
420.67578125 -24.0224609375 m 2
 13.2548828125 -24.0224609375 l 2
 5.9404296875 -24.0224609375 0.00390625 -18.0859375 0.00390625 -10.771484375 c 0
 0.00390625 -3.45703125 5.9404296875 2.4794921875 13.2548828125 2.4794921875 c 2
 420.67578125 2.4794921875 l 2
 427.990234375 2.4794921875 433.926757812 -3.45703125 433.926757812 -10.771484375 c 0
 433.926757812 -18.0859375 427.990234375 -24.0224609375 420.67578125 -24.0224609375 c 2
EndSplineSet
Validated: 5
EndChar

StartChar: v
Encoding: 118 118 21
Width: 500
VWidth: 0
Flags: W
HStem: -24.0244 26.2695<141.75 292.117> 112.924 26.2695<5.88477 427.982> 526.8 20G<9.50977 16.7603 145.375 152.626 281.242 288.492 417.107 424.357>
VStem: 0 26.2695<118.809 126.059 139.193 546.796> 135.866 26.2695<-24.04 -11.0566 -11.0557 -11.0557 2.24512 546.796> 271.731 26.2705<-24.0488 546.786> 407.597 26.2705<118.817 546.796>
LayerCount: 2
Fore
SplineSet
13.134765625 112.923828125 m 0
 13.134765625 112.923828125 13.134765625 112.923828125 13.1337890625 112.923828125 c 0
 5.8837890625 112.923828125 0 118.80859375 0 126.05859375 c 0
 0 533.665039062 l 2
 0 540.915039062 5.884765625 546.799804688 13.134765625 546.799804688 c 0
 20.3857421875 546.799804688 26.26953125 540.915039062 26.26953125 533.665039062 c 2
 26.26953125 126.05859375 l 2
 26.26953125 118.80859375 20.3857421875 112.923828125 13.134765625 112.923828125 c 0
149.000976562 -24.19140625 m 0
 149.000976562 -24.19140625 149 -24.19140625 149 -24.19140625 c 0
 141.75 -24.19140625 135.866210938 -18.306640625 135.866210938 -11.056640625 c 0
 135.866210938 -11.056640625 135.866210938 -11.056640625 135.866210938 -11.0556640625 c 2
 135.866210938 533.665039062 l 2
 135.866210938 540.915039062 141.75 546.799804688 149.000976562 546.799804688 c 0
 156.250976562 546.799804688 162.135742188 540.915039062 162.135742188 533.665039062 c 2
 162.135742188 -11.0556640625 l 2
 162.135742188 -11.056640625 162.135742188 -11.056640625 162.135742188 -11.056640625 c 0
 162.135742188 -18.306640625 156.251953125 -24.19140625 149.000976562 -24.19140625 c 0
284.8671875 -24.2001953125 m 0
 284.866210938 -24.2001953125 284.866210938 -24.2001953125 284.866210938 -24.2001953125 c 0
 277.616210938 -24.2001953125 271.731445312 -18.31640625 271.731445312 -11.0654296875 c 0
 271.731445312 533.655273438 l 2
 271.731445312 540.905273438 277.616210938 546.790039062 284.8671875 546.790039062 c 0
 292.1171875 546.790039062 298.001953125 540.905273438 298.001953125 533.655273438 c 2
 298.001953125 -11.0654296875 l 2
 298.001953125 -18.31640625 292.118164062 -24.2001953125 284.8671875 -24.2001953125 c 0
420.732421875 112.93359375 m 0
 420.731445312 112.93359375 420.731445312 112.93359375 420.731445312 112.93359375 c 0
 413.481445312 112.93359375 407.596679688 118.817382812 407.596679688 126.067382812 c 0
 407.596679688 533.665039062 l 2
 407.596679688 540.915039062 413.481445312 546.799804688 420.732421875 546.799804688 c 0
 427.982421875 546.799804688 433.8671875 540.915039062 433.8671875 533.665039062 c 2
 433.8671875 126.067382812 l 2
 433.8671875 118.817382812 427.982421875 112.93359375 420.732421875 112.93359375 c 0
13.134765625 112.923828125 m 2
 5.884765625 112.923828125 0 118.80859375 0 126.05859375 c 0
 0 133.30859375 5.884765625 139.193359375 13.134765625 139.193359375 c 2
 420.732421875 139.203125 l 2
 427.982421875 139.203125 433.8671875 133.318359375 433.8671875 126.067382812 c 0
 433.8671875 118.817382812 427.982421875 112.93359375 420.732421875 112.93359375 c 2
 13.134765625 112.923828125 l 2
284.8671875 -24.0244140625 m 2
 149.000976562 -24.0244140625 l 2
 141.75 -24.0244140625 135.866210938 -18.1396484375 135.866210938 -10.888671875 c 0
 135.866210938 -3.638671875 141.75 2.2451171875 149.000976562 2.2451171875 c 2
 284.8671875 2.2451171875 l 2
 292.1171875 2.2451171875 298.001953125 -3.638671875 298.001953125 -10.888671875 c 0
 298.001953125 -18.1396484375 292.1171875 -24.0244140625 284.8671875 -24.0244140625 c 2
EndSplineSet
Validated: 5
EndChar

StartChar: w
Encoding: 119 119 22
Width: 770
VWidth: 0
Flags: W
HStem: -24.0225 26.4434<141.746 292.165 413.392 563.81> 112.88 26.4434<5.92383 699.633> 526.8 20G<9.57275 16.8711 145.395 152.693 281.217 288.516 417.041 424.339 552.862 560.16 688.686 695.984>
VStem: 0 26.4434<118.803 126.102 139.323 546.795> 135.822 26.4434<-24.038 -10.9697 -10.9688 -10.9688 2.4209 546.795> 271.645 26.4434<-24.0478 546.786> 407.468 26.4434<-24.038 -10.9697 -10.9688 -10.9688 2.4209 546.795> 543.289 26.4434<-24.0478 546.786> 679.112 26.4443<118.812 546.795>
LayerCount: 2
Fore
SplineSet
13.2216796875 112.879882812 m 0
 13.2216796875 112.879882812 13.220703125 112.879882812 13.220703125 112.879882812 c 0
 5.9228515625 112.879882812 0 118.802734375 0 126.100585938 c 0
 0 126.100585938 0 126.100585938 0 126.1015625 c 2
 0 533.578125 l 2
 0 540.875976562 5.923828125 546.799804688 13.2216796875 546.799804688 c 0
 20.5205078125 546.799804688 26.443359375 540.875976562 26.443359375 533.578125 c 2
 26.443359375 126.1015625 l 2
 26.443359375 126.100585938 26.443359375 126.100585938 26.443359375 126.100585938 c 0
 26.443359375 118.802734375 20.5205078125 112.879882812 13.22265625 112.879882812 c 0
 13.22265625 112.879882812 13.2216796875 112.879882812 13.2216796875 112.879882812 c 0
149.043945312 -24.1904296875 m 0
 149.043945312 -24.1904296875 149.043945312 -24.1904296875 149.04296875 -24.1904296875 c 0
 141.745117188 -24.1904296875 135.822265625 -18.267578125 135.822265625 -10.9697265625 c 0
 135.822265625 -10.9697265625 135.822265625 -10.9697265625 135.822265625 -10.96875 c 2
 135.822265625 533.578125 l 2
 135.822265625 540.875976562 141.74609375 546.799804688 149.043945312 546.799804688 c 0
 156.342773438 546.799804688 162.265625 540.875976562 162.265625 533.578125 c 2
 162.265625 -10.96875 l 2
 162.265625 -10.9697265625 162.265625 -10.9697265625 162.265625 -10.9697265625 c 0
 162.265625 -18.267578125 156.342773438 -24.1904296875 149.043945312 -24.1904296875 c 0
284.866210938 -24.2001953125 m 0
 277.568359375 -24.2001953125 271.64453125 -18.27734375 271.64453125 -10.978515625 c 0
 271.64453125 533.568359375 l 2
 271.64453125 540.866210938 277.568359375 546.790039062 284.866210938 546.790039062 c 0
 292.165039062 546.790039062 298.087890625 540.866210938 298.087890625 533.568359375 c 2
 298.087890625 -10.978515625 l 2
 298.087890625 -18.27734375 292.165039062 -24.2001953125 284.8671875 -24.2001953125 c 0
 284.866210938 -24.2001953125 284.866210938 -24.2001953125 284.866210938 -24.2001953125 c 0
692.334960938 112.888671875 m 0
 692.333984375 112.888671875 692.333984375 112.888671875 692.333984375 112.888671875 c 0
 685.036132812 112.888671875 679.112304688 118.811523438 679.112304688 126.109375 c 0
 679.112304688 126.110351562 679.112304688 126.110351562 679.112304688 126.110351562 c 2
 679.112304688 533.578125 l 2
 679.112304688 540.875976562 685.036132812 546.799804688 692.334960938 546.799804688 c 0
 699.6328125 546.799804688 705.556640625 540.875976562 705.556640625 533.578125 c 2
 705.556640625 126.110351562 l 2
 705.556640625 126.110351562 705.556640625 126.110351562 705.556640625 126.109375 c 0
 705.556640625 118.811523438 699.6328125 112.888671875 692.334960938 112.888671875 c 0
692.334960938 112.879882812 m 2
 13.2216796875 112.879882812 l 2
 5.923828125 112.879882812 0 118.802734375 0 126.1015625 c 0
 0 133.399414062 5.923828125 139.323242188 13.2216796875 139.323242188 c 2
 692.334960938 139.323242188 l 2
 699.6328125 139.323242188 705.556640625 133.399414062 705.556640625 126.1015625 c 0
 705.556640625 118.802734375 699.6328125 112.879882812 692.334960938 112.879882812 c 2
284.866210938 -24.0224609375 m 2
 149.043945312 -24.0224609375 l 2
 141.74609375 -24.0224609375 135.822265625 -18.099609375 135.822265625 -10.80078125 c 0
 135.822265625 -3.5029296875 141.74609375 2.4208984375 149.043945312 2.4208984375 c 2
 284.866210938 2.4208984375 l 2
 292.165039062 2.4208984375 298.087890625 -3.5029296875 298.087890625 -10.80078125 c 0
 298.087890625 -18.099609375 292.165039062 -24.0224609375 284.866210938 -24.0224609375 c 2
420.689453125 -24.1904296875 m 0
 413.391601562 -24.1904296875 407.467773438 -18.267578125 407.467773438 -10.9697265625 c 0
 407.467773438 -10.9697265625 407.467773438 -10.9697265625 407.467773438 -10.96875 c 2
 407.467773438 533.578125 l 2
 407.467773438 540.875976562 413.391601562 546.799804688 420.689453125 546.799804688 c 0
 427.98828125 546.799804688 433.911132812 540.875976562 433.911132812 533.578125 c 2
 433.911132812 -10.96875 l 2
 433.911132812 -10.9697265625 433.911132812 -10.9697265625 433.911132812 -10.9697265625 c 0
 433.911132812 -18.267578125 427.98828125 -24.1904296875 420.690429688 -24.1904296875 c 0
 420.689453125 -24.1904296875 420.689453125 -24.1904296875 420.689453125 -24.1904296875 c 0
556.510742188 -24.2001953125 m 0
 549.211914062 -24.2001953125 543.2890625 -18.27734375 543.2890625 -10.978515625 c 0
 543.2890625 533.568359375 l 2
 543.2890625 540.866210938 549.212890625 546.790039062 556.510742188 546.790039062 c 0
 563.809570312 546.790039062 569.732421875 540.866210938 569.732421875 533.568359375 c 2
 569.732421875 -10.978515625 l 2
 569.732421875 -18.27734375 563.809570312 -24.2001953125 556.51171875 -24.2001953125 c 0
 556.51171875 -24.2001953125 556.51171875 -24.2001953125 556.510742188 -24.2001953125 c 0
556.510742188 -24.0224609375 m 2
 420.689453125 -24.0224609375 l 2
 413.391601562 -24.0224609375 407.467773438 -18.099609375 407.467773438 -10.80078125 c 0
 407.467773438 -3.5029296875 413.391601562 2.4208984375 420.689453125 2.4208984375 c 2
 556.510742188 2.4208984375 l 2
 563.809570312 2.4208984375 569.732421875 -3.5029296875 569.732421875 -10.80078125 c 0
 569.732421875 -18.099609375 563.809570312 -24.0224609375 556.510742188 -24.0224609375 c 2
EndSplineSet
Validated: 5
EndChar

StartChar: x
Encoding: 120 120 23
Width: 501
VWidth: 0
Flags: W
HStem: 250.576 26.5322<5.95605 427.986> 387.458 162.342<0.000976562 20.5889 141.744 156.39 277.546 292.19 413.346 433.934> 387.458 26.5312<5.94336 427.99>
VStem: 0 26.5312<-17.0352 250.576 264.938 272.261 393.401 400.724 413.989 549.795> 135.801 26.5312<-17.9546 549.795> 271.603 26.5312<-17.9643 549.786> 407.4 26.5312<-17.9605 272.261 386.996 549.795>
LayerCount: 2
Fore
SplineSet
13.2666015625 387.458007812 m 0xde
 5.943359375 387.458007812 0.0009765625 393.401367188 0.0009765625 400.723632812 c 0
 0.0009765625 536.534179688 l 2
 0.0009765625 543.856445312 5.943359375 549.799804688 13.2666015625 549.799804688 c 0
 20.5888671875 549.799804688 26.5322265625 543.856445312 26.5322265625 536.534179688 c 2
 26.5322265625 400.723632812 l 2
 26.5322265625 393.401367188 20.58984375 387.458007812 13.2666015625 387.458007812 c 0xde
149.06640625 -21.1904296875 m 0
 141.744140625 -21.1904296875 135.80078125 -15.248046875 135.80078125 -7.92578125 c 0
 135.80078125 536.534179688 l 2
 135.80078125 543.856445312 141.744140625 549.799804688 149.06640625 549.799804688 c 0
 156.389648438 549.799804688 162.33203125 543.856445312 162.33203125 536.534179688 c 2
 162.33203125 -7.92578125 l 2
 162.33203125 -15.248046875 156.389648438 -21.1904296875 149.067382812 -21.1904296875 c 0
 149.067382812 -21.1904296875 149.06640625 -21.1904296875 149.06640625 -21.1904296875 c 0
284.868164062 -21.2001953125 m 0
 284.8671875 -21.2001953125 284.8671875 -21.2001953125 284.8671875 -21.2001953125 c 0
 277.544921875 -21.2001953125 271.602539062 -15.2578125 271.602539062 -7.9345703125 c 0
 271.602539062 536.524414062 l 2
 271.602539062 543.846679688 277.545898438 549.790039062 284.868164062 549.790039062 c 0
 292.190429688 549.790039062 298.133789062 543.846679688 298.133789062 536.524414062 c 2
 298.133789062 -7.9345703125 l 2
 298.133789062 -15.2578125 292.190429688 -21.2001953125 284.869140625 -21.2001953125 c 0
 284.868164062 -21.2001953125 284.868164062 -21.2001953125 284.868164062 -21.2001953125 c 0
420.66796875 386.99609375 m 0
 413.345703125 386.99609375 407.403320312 392.939453125 407.403320312 400.26171875 c 0
 407.403320312 536.534179688 l 2
 407.403320312 543.856445312 413.345703125 549.799804688 420.66796875 549.799804688 c 0
 427.990234375 549.799804688 433.93359375 543.856445312 433.93359375 536.534179688 c 2
 433.93359375 400.26171875 l 2
 433.93359375 392.939453125 427.991210938 386.99609375 420.668945312 386.99609375 c 0
 420.668945312 386.99609375 420.668945312 386.99609375 420.66796875 386.99609375 c 0
13.2666015625 387.458007812 m 2
 5.943359375 387.458007812 0.0009765625 393.401367188 0.0009765625 400.723632812 c 0
 0.0009765625 408.046875 5.943359375 413.989257812 13.2666015625 413.989257812 c 2xbe
 420.66796875 414 l 2
 427.990234375 414 433.93359375 408.056640625 433.93359375 400.733398438 c 0
 433.93359375 393.411132812 427.990234375 387.46875 420.66796875 387.46875 c 2
 13.2666015625 387.458007812 l 2
420.671875 250.576171875 m 2
 13.2705078125 250.576171875 l 2
 5.9560546875 250.584960938 0.0205078125 256.528320312 0.0205078125 263.841796875 c 0
 0.0205078125 271.15625 5.9560546875 277.099609375 13.2705078125 277.108398438 c 2
 420.671875 277.108398438 l 2
 427.986328125 277.099609375 433.921875 271.15625 433.921875 263.841796875 c 0
 433.921875 256.528320312 427.986328125 250.584960938 420.671875 250.576171875 c 2
13.265625 -20.271484375 m 0
 5.9423828125 -20.271484375 0 -14.328125 0 -7.005859375 c 0
 0 -7.005859375 0 -7.0048828125 0 -7.0048828125 c 2
 0 264.938476562 l 2
 0 272.260742188 5.943359375 278.204101562 13.265625 278.204101562 c 0
 20.587890625 278.204101562 26.53125 272.260742188 26.53125 264.938476562 c 2
 26.53125 -7.0048828125 l 2
 26.53125 -7.0048828125 26.53125 -7.005859375 26.53125 -7.005859375 c 0
 26.53125 -14.328125 20.587890625 -20.271484375 13.2666015625 -20.271484375 c 0
 13.265625 -20.271484375 13.265625 -20.271484375 13.265625 -20.271484375 c 0
420.666015625 -21.1962890625 m 0
 413.34375 -21.1962890625 407.400390625 -15.25390625 407.400390625 -7.931640625 c 0
 407.400390625 -7.9306640625 407.400390625 -7.9306640625 407.400390625 -7.9306640625 c 2
 407.400390625 264.938476562 l 2
 407.400390625 272.260742188 413.34375 278.204101562 420.666015625 278.204101562 c 0
 427.989257812 278.204101562 433.931640625 272.260742188 433.931640625 264.938476562 c 2
 433.931640625 -7.9306640625 l 2
 433.931640625 -7.9306640625 433.931640625 -7.9306640625 433.931640625 -7.931640625 c 0
 433.931640625 -15.25390625 427.989257812 -21.1962890625 420.666992188 -21.1962890625 c 0
 420.666992188 -21.1962890625 420.666015625 -21.1962890625 420.666015625 -21.1962890625 c 0
EndSplineSet
Validated: 5
EndChar

StartChar: y
Encoding: 121 121 24
Width: 500
VWidth: 0
Flags: W
HStem: -162.165 26.667<0.00435772 432.706> -25.4551 26.668<5.97363 432.706> 112.51 26.668<5.97363 432.706> 531.188 20G<9.65381 17.0142 146.992 154.352 284.329 291.689 421.666 429.026>
VStem: 0 26.668<-19.4814 -12.1211 1.21289 112.51 139.178 551.184> 137.338 26.667<-19.4814 551.195> 274.675 26.668<-156.034 551.184> 412.012 26.667<-162.2 551.196>
LayerCount: 2
Fore
SplineSet
13.333984375 -25.455078125 m 0
 13.333984375 -25.455078125 13.3330078125 -25.455078125 13.3330078125 -25.455078125 c 0
 5.9736328125 -25.455078125 0 -19.4814453125 0 -12.1220703125 c 0
 0 -12.1220703125 0 -12.12109375 0 -12.12109375 c 2
 0 537.85546875 l 2
 0 545.215820312 5.9736328125 551.188476562 13.333984375 551.188476562 c 0
 20.6943359375 551.188476562 26.66796875 545.215820312 26.66796875 537.85546875 c 2
 26.66796875 -12.12109375 l 2
 26.66796875 -12.12109375 26.66796875 -12.1220703125 26.66796875 -12.1220703125 c 0
 26.66796875 -19.4814453125 20.6943359375 -25.455078125 13.3349609375 -25.455078125 c 0
 13.3349609375 -25.455078125 13.333984375 -25.455078125 13.333984375 -25.455078125 c 0
150.671875 -25.455078125 m 0
 150.671875 -25.455078125 150.671875 -25.455078125 150.670898438 -25.455078125 c 0
 143.311523438 -25.455078125 137.337890625 -19.4814453125 137.337890625 -12.1220703125 c 0
 137.337890625 -12.1220703125 137.337890625 -12.12109375 137.337890625 -12.12109375 c 2
 137.337890625 537.865234375 l 2
 137.337890625 545.225585938 143.311523438 551.19921875 150.671875 551.19921875 c 0
 158.032226562 551.19921875 164.004882812 545.225585938 164.004882812 537.865234375 c 2
 164.004882812 -12.12109375 l 2
 164.004882812 -12.12109375 164.004882812 -12.1220703125 164.004882812 -12.1220703125 c 0
 164.004882812 -19.4814453125 158.032226562 -25.455078125 150.671875 -25.455078125 c 0
288.008789062 -162.006835938 m 0
 280.6484375 -162.006835938 274.674804688 -156.034179688 274.674804688 -148.673828125 c 0
 274.674804688 537.854492188 l 2
 274.674804688 545.21484375 280.6484375 551.188476562 288.008789062 551.188476562 c 0
 295.369140625 551.188476562 301.342773438 545.21484375 301.342773438 537.854492188 c 2
 301.342773438 -148.673828125 l 2
 301.342773438 -156.034179688 295.370117188 -162.006835938 288.009765625 -162.006835938 c 0
 288.009765625 -162.006835938 288.009765625 -162.006835938 288.008789062 -162.006835938 c 0
425.345703125 -162.799804688 m 0
 425.345703125 -162.799804688 425.344726562 -162.799804688 425.344726562 -162.799804688 c 0
 417.985351562 -162.799804688 412.01171875 -156.826171875 412.01171875 -149.466796875 c 0
 412.01171875 -149.466796875 412.01171875 -149.465820312 412.01171875 -149.465820312 c 2
 412.01171875 537.866210938 l 2
 412.01171875 545.2265625 417.985351562 551.200195312 425.345703125 551.200195312 c 0
 432.706054688 551.200195312 438.678710938 545.2265625 438.678710938 537.866210938 c 2
 438.678710938 -149.465820312 l 2
 438.678710938 -149.465820312 438.678710938 -149.466796875 438.678710938 -149.466796875 c 0
 438.678710938 -156.826171875 432.706054688 -162.799804688 425.345703125 -162.799804688 c 0
13.333984375 -162.165039062 m 2
 5.9736328125 -162.165039062 0 -156.192382812 0 -148.83203125 c 0
 0 -141.471679688 5.9736328125 -135.498046875 13.333984375 -135.498046875 c 2
 425.345703125 -135.489257812 l 2
 432.706054688 -135.489257812 438.678710938 -141.461914062 438.678710938 -148.822265625 c 0
 438.678710938 -156.182617188 432.706054688 -162.15625 425.345703125 -162.15625 c 2
 13.333984375 -162.165039062 l 2
13.333984375 112.509765625 m 2
 5.9736328125 112.509765625 0 118.483398438 0 125.84375 c 0
 0 133.204101562 5.9736328125 139.177734375 13.333984375 139.177734375 c 2
 425.345703125 139.186523438 l 2
 432.706054688 139.186523438 438.678710938 133.212890625 438.678710938 125.852539062 c 0
 438.678710938 118.493164062 432.706054688 112.518554688 425.345703125 112.518554688 c 2
 13.333984375 112.509765625 l 2
425.345703125 -25.455078125 m 2
 13.333984375 -25.455078125 l 2
 5.9736328125 -25.455078125 0 -19.4814453125 0 -12.12109375 c 0
 0 -4.7607421875 5.9736328125 1.212890625 13.333984375 1.212890625 c 2
 425.345703125 1.212890625 l 2
 432.706054688 1.212890625 438.678710938 -4.7607421875 438.678710938 -12.12109375 c 0
 438.678710938 -19.4814453125 432.706054688 -25.455078125 425.345703125 -25.455078125 c 2
EndSplineSet
Validated: 5
EndChar

StartChar: z
Encoding: 122 122 25
Width: 500
VWidth: 0
Flags: W
HStem: -25.0332 25.2881<5.92578 434.375> 110.398 26.4561<5.92578 434.388> 245.758 26.4551<5.92578 428.466> 381.736 26.4561<135.984 428.466> 518.334 26.4561<0.00432282 428.466>
VStem: 0 26.4561<-19.1074 -11.8066 0.254883 110.398 136.854 245.758 259.714 267.016> 135.979 26.4551<-19.4219 267.021> 271.958 26.4551<252.419 538.867> 407.937 26.4561<252.419 538.872>
LayerCount: 2
Fore
SplineSet
285.185546875 246.4921875 m 0
 277.883789062 246.4921875 271.958007812 252.418945312 271.958007812 259.720703125 c 0
 271.958007812 531.56640625 l 2
 271.958007812 538.8671875 277.883789062 544.79296875 285.185546875 544.79296875 c 0
 292.487304688 544.79296875 298.413085938 538.8671875 298.413085938 531.56640625 c 2
 298.413085938 259.720703125 l 2
 298.413085938 252.418945312 292.487304688 246.4921875 285.185546875 246.4921875 c 0
421.1640625 246.4921875 m 0
 413.862304688 246.4921875 407.936523438 252.418945312 407.936523438 259.720703125 c 0
 407.936523438 531.5703125 l 2
 407.936523438 538.872070312 413.862304688 544.797851562 421.1640625 544.797851562 c 0
 428.465820312 544.797851562 434.392578125 538.872070312 434.392578125 531.5703125 c 2
 434.392578125 259.720703125 l 2
 434.392578125 252.418945312 428.465820312 246.4921875 421.1640625 246.4921875 c 0
13.228515625 -25.033203125 m 0
 5.9267578125 -25.033203125 0.0009765625 -19.107421875 0.0009765625 -11.806640625 c 0
 0.0009765625 259.713867188 l 2
 0.0009765625 267.015625 5.9267578125 272.942382812 13.228515625 272.942382812 c 0
 20.5302734375 272.942382812 26.4560546875 267.015625 26.4560546875 259.713867188 c 2
 26.4560546875 -11.806640625 l 2
 26.4560546875 -19.107421875 20.5302734375 -25.033203125 13.228515625 -25.033203125 c 0
149.20703125 -25.34765625 m 0
 141.90625 -25.34765625 135.979492188 -19.421875 135.979492188 -12.1201171875 c 0
 135.979492188 -12.1201171875 135.979492188 -12.119140625 135.979492188 -12.119140625 c 2
 135.979492188 259.71875 l 2
 135.979492188 267.020507812 141.90625 272.946289062 149.20703125 272.946289062 c 0
 156.508789062 272.946289062 162.434570312 267.020507812 162.434570312 259.71875 c 2
 162.434570312 -12.119140625 l 2
 162.434570312 -12.119140625 162.434570312 -12.1201171875 162.434570312 -12.1201171875 c 0
 162.434570312 -19.421875 156.508789062 -25.34765625 149.208007812 -25.34765625 c 0
 149.208007812 -25.34765625 149.208007812 -25.34765625 149.20703125 -25.34765625 c 0
13.2275390625 518.333984375 m 2
 5.92578125 518.333984375 0 524.260742188 0 531.5625 c 0
 0 538.86328125 5.92578125 544.790039062 13.2275390625 544.790039062 c 2
 421.1640625 544.799804688 l 2
 428.465820312 544.799804688 434.392578125 538.874023438 434.392578125 531.572265625 c 0
 434.392578125 524.270507812 428.465820312 518.344726562 421.1640625 518.344726562 c 2
 13.2275390625 518.333984375 l 2
421.1640625 381.736328125 m 2
 149.20703125 381.736328125 l 2
 141.90625 381.736328125 135.979492188 387.662109375 135.979492188 394.96484375 c 0
 135.979492188 402.265625 141.90625 408.192382812 149.20703125 408.192382812 c 2
 421.1640625 408.192382812 l 2
 428.465820312 408.192382812 434.392578125 402.265625 434.392578125 394.96484375 c 0
 434.392578125 387.662109375 428.465820312 381.736328125 421.1640625 381.736328125 c 2
13.2275390625 110.3984375 m 2
 5.92578125 110.3984375 0 116.325195312 0 123.626953125 c 0
 0 130.927734375 5.92578125 136.854492188 13.2275390625 136.854492188 c 2
 421.1640625 136.86328125 l 2
 428.465820312 136.86328125 434.392578125 130.9375 434.392578125 123.635742188 c 0
 434.392578125 116.333984375 428.465820312 110.408203125 421.1640625 110.408203125 c 2
 13.2275390625 110.3984375 l 2
421.1640625 -26.2001953125 m 2
 13.2275390625 -26.2001953125 l 2
 5.92578125 -26.2001953125 0 -20.2744140625 0 -12.97265625 c 0
 0 -5.6708984375 5.92578125 0.2548828125 13.2275390625 0.2548828125 c 2
 421.1640625 0.2548828125 l 2
 428.465820312 0.2548828125 434.392578125 -5.6708984375 434.392578125 -12.97265625 c 0
 434.392578125 -20.2744140625 428.465820312 -26.2001953125 421.1640625 -26.2001953125 c 2
421.1640625 245.7578125 m 2
 13.2275390625 245.7578125 l 2
 5.92578125 245.7578125 0 251.68359375 0 258.985351562 c 0
 0 266.287109375 5.92578125 272.212890625 13.2275390625 272.212890625 c 2
 421.1640625 272.212890625 l 2
 428.465820312 272.212890625 434.392578125 266.287109375 434.392578125 258.985351562 c 0
 434.392578125 251.68359375 428.465820312 245.7578125 421.1640625 245.7578125 c 2
EndSplineSet
Validated: 5
EndChar

StartChar: period
Encoding: 46 46 26
Width: 200
VWidth: 0
Flags: W
HStem: -26.5596 22.8262<0.0037301 140.584> 93.4043 22.8271<0.0037301 140.585>
VStem: 0 140.589
LayerCount: 2
Fore
SplineSet
11.4140625 93.404296875 m 2
 11.4140625 93.404296875 11.4140625 93.404296875 11.4130859375 93.404296875 c 0
 5.11328125 93.404296875 0 98.517578125 0 104.817382812 c 0
 0 111.1171875 5.1123046875 116.23046875 11.412109375 116.231445312 c 2
 129.172851562 116.240234375 l 2
 129.173828125 116.240234375 129.174804688 116.240234375 129.174804688 116.240234375 c 0
 135.475585938 116.240234375 140.588867188 111.126953125 140.588867188 104.826171875 c 0
 140.588867188 98.52734375 135.475585938 93.4140625 129.176757812 93.4130859375 c 2
 11.4140625 93.404296875 l 2
129.174804688 -26.5595703125 m 2
 11.4130859375 -26.5595703125 l 2
 5.11328125 -26.5595703125 0 -21.447265625 0 -15.146484375 c 0
 0 -8.8466796875 5.11328125 -3.7333984375 11.4130859375 -3.7333984375 c 2
 129.174804688 -3.7333984375 l 2
 135.474609375 -3.7333984375 140.587890625 -8.8466796875 140.587890625 -15.146484375 c 0
 140.587890625 -21.447265625 135.474609375 -26.5595703125 129.174804688 -26.5595703125 c 2
EndSplineSet
Validated: 1
EndChar
